<?xml version="1.0" standalone="no"?>
<!DOCTYPE svg PUBLIC "-//W3C//DTD SVG 1.1//EN" "http://www.w3.org/Graphics/SVG/1.1/DTD/svg11.dtd" >
<!--
2013-9-30: Created.
-->
<svg>
<metadata>
Created by iconfont
</metadata>
<defs>

<font id="iconfont" horiz-adv-x="1024" >
  <font-face
    font-family="iconfont"
    font-weight="500"
    font-stretch="normal"
    units-per-em="1024"
    ascent="896"
    descent="-128"
  />
    <missing-glyph />
    
    <glyph glyph-name="pinglun" unicode="&#58882;" d="M819.788835 95.02344600000004l0-158.697395-156.846521 96.562243c-21.750241-3.551896-44.07458-5.628184-67.000649-5.628184-107.742184 0-204.254146 41.231053-270.859782 106.344027 10.971315-0.62831 21.874066-1.421372 33.022421-1.421372 15.629596 0 31.041219 0.765433 46.288082 1.994424 52.58679-36.20355 119.082928-57.953923 191.548256-57.953923 24.974811 0 49.130944 2.841721 72.41109 7.705496l54.486124-36.341696c-0.055261-0.026606-0.108475-0.054235-0.163736-0.081864L763.827042 20.264787999999953l0 43.089377 0 56.041364c84.16015 47.434336 139.903969 129.35102 139.903969 222.63459 0 58.992579-22.515705 113.311719-60.1698 157.413146 2.486736 17.214057 4.208007 34.632775 4.208007 52.435233 0 8.142447-0.873939 16.080234-1.421431 24.099884 69.678751-57.981553 113.343992-139.665946 113.343992-230.449579C959.692804 243.69244100000003 904.823947 153.277198 819.788835 95.02344600000004zM428.057311 195.13758499999994c-22.925045 0-45.263711 2.076288-67.000649 5.629207l-156.845497-96.562243L204.211165 262.873292C119.176053 321.154673 64.307196 411.569916 64.307196 513.406279c0 175.774329 162.857668 318.268694 363.750115 318.268694 200.894494 0 363.750115-142.494365 363.750115-318.268694C791.807427 337.63194999999996 628.951806 195.13758499999994 428.057311 195.13758499999994zM428.057311 775.715473c-169.988357 0-307.789346-119.023814-307.789346-265.806855 0-93.270267 55.743819-175.173648 139.903969-222.63459l0-56.041364 0-43.089377 41.150875 27.241434c-0.068564 0.026606-0.122802 0.055259-0.177039 0.081864l54.513755 36.340673c23.266843-4.863774 47.421952-7.704472 72.397787-7.704472 169.988357 0 307.789346 118.995161 307.789346 265.806855C735.846658 656.692682 598.045669 775.715473 428.057311 775.715473zM609.932881 467.938738c-23.171672 0-41.9716 18.784832-41.9716 41.96988 0 23.170722 18.799928 41.96988 41.9716 41.96988 23.172695 0 41.9716-18.799158 41.9716-41.96988C651.903457 486.724593 633.104552 467.938738 609.932881 467.938738zM442.047504 467.938738c-23.184975 0-41.9716 18.784832-41.9716 41.96988 0 23.170722 18.785602 41.96988 41.9716 41.96988s41.9716-18.799158 41.9716-41.96988C484.019104 486.724593 465.233502 467.938738 442.047504 467.938738zM274.16315 467.938738c-23.184975 0-41.970577 18.784832-41.970577 41.96988 0 23.170722 18.785602 41.96988 41.970577 41.96988s41.9716-18.799158 41.9716-41.96988C316.133727 486.724593 297.348125 467.938738 274.16315 467.938738z"  horiz-adv-x="1024" />

    
    <glyph glyph-name="bangzhu" unicode="&#59020;" d="M512 832C264.576 832 64 631.424 64 384s200.576-448 448-448 448 200.576 448 448S759.424 832 512 832zM512 10.432c-206.336 0-373.568 167.232-373.568 373.568S305.664 757.568 512 757.568 885.568 590.336 885.568 384 718.336 10.432 512 10.432zM512 651.84c-103.808 0-187.968-84.16-187.968-187.968 0-16.512 1.408-29.696 5.44-44.928l0.064 0C334.592 401.024 351.04 387.84 370.624 387.84c23.552 0 42.688 19.136 42.688 42.688 0 3.968-0.576 7.744-1.536 11.328l0.128 0C410.304 448.96 409.408 456.32 409.408 463.872 409.408 520.448 455.36 566.4 512 566.4s102.528-45.888 102.528-102.528c0-56.64-45.888-102.528-102.528-102.528-23.616 0-42.752-19.2-42.752-42.752l0-113.728 85.44 0L554.688 280.896c83.264 19.328 145.28 93.888 145.28 182.976C699.968 567.68 615.808 651.84 512 651.84zM469.248 177.664l85.44 0 0-77.888-85.44 0 0 77.888Z"  horiz-adv-x="1024" />

    
    <glyph glyph-name="excel" unicode="&#59045;" d="M895.969 559.985l0-575.953c0-26.497-21.498-47.995-47.998-47.995L176.028-63.963c-26.498 0-47.996 21.498-47.996 47.995L128.032 783.967c0 26.498 21.499 47.996 47.996 47.996L623.99 831.963c26.498 0 63.494-15.499 81.994-33.997l155.986-155.987C880.469 623.48 895.969 586.483 895.969 559.985zM831.973 511.989 623.99 511.989c-26.498 0-47.996 21.499-47.996 47.996L575.994 767.968 192.026 767.968l0-767.936 639.946 0L831.972 511.989zM639.99 575.984l187.984 0c-3 8.5-7.5 16.999-11 20.499L660.488 752.97c-3.5 3.5-12 7.999-20.498 10.999L639.99 575.984zM569.09 96l-56.717 88.062L455.656 96 319.833 96l125.375 192.54L319.833 480.333 454.91 480.333l57.463-88.061 56.717 88.061 135.076 0L580.285 288.54 704.166 96 569.09 96z"  horiz-adv-x="1024" />

    
    <glyph glyph-name="point" unicode="&#59043;" d="M512 300m-409.6 0a24 24 0 1 0 819.2 0 24 24 0 1 0-819.2 0Z"  horiz-adv-x="1024" />

    
    <glyph glyph-name="wangluoerror" unicode="&#59059;" d="M511.99751 895.999996C229.230546 895.999996 0 666.76945 0 384.002485c0-282.770717 229.230546-512.002515 511.99751-512.002515 282.770717 0 512.002515 229.230546 512.002515 512.002515C1023.998774 666.76945 794.768228 895.999996 511.99751 895.999996zM861.003813 34.996182999999974c-45.33469-45.33469-98.11799-80.926387-156.891204-105.78553-60.836156-25.728606-125.474181-38.77681-192.115099-38.77681-66.637165 0-131.27519 13.048204-192.111346 38.77681-58.773214 24.859143-111.556514 60.449589-156.891204 105.78553C117.660271 80.330872 82.069825 133.11292100000003 57.209431 191.887386c-25.728606 60.836156-38.77681 125.474181-38.77681 192.115099 0 66.637165 13.048204 131.27519 38.77681 192.111346 24.860394 58.773214 60.45084 111.556514 105.78553 156.891204 45.33469 45.33469 98.11799 80.926387 156.891204 105.78553 60.836156 25.728606 125.474181 38.77681 192.111346 38.77681 66.642169 0 131.280194-13.048204 192.115099-38.77681 58.773214-24.859143 111.556514-60.45084 156.891204-105.78553 45.33469-45.33469 80.926387-98.11799 105.78553-156.891204 25.728606-60.836156 38.77681-125.474181 38.77681-192.111346 0-66.642169-13.048204-131.280194-38.77681-192.115099C941.9302 133.11292100000003 906.339754 80.330872 861.003813 34.996182999999974zM423.516176 513.25977L122.469216 513.25977c-4.618789 0-8.36186-3.743071-8.36186-8.36186 0-4.617538 3.743071-8.365613 8.36186-8.365613l301.04696 0c4.618789 0 8.366864 3.743071 8.366864 8.365613C431.88304 509.516699 428.134965 513.25977 423.516176 513.25977L423.516176 513.25977zM423.516176 362.73503900000003L122.469216 362.73503900000003c-4.618789 0-8.36186-3.743071-8.36186-8.36186 0-4.622542 3.743071-8.366864 8.36186-8.366864l301.04696 0c4.618789 0 8.366864 3.743071 8.366864 8.366864C431.88304 358.99196800000004 428.134965 362.73503900000003 423.516176 362.73503900000003L423.516176 362.73503900000003zM301.218351 436.091466c0 15.589038-12.64162 28.221901-28.225655 28.221901-15.594042 0-28.221901-12.632863-28.221901-28.221901s12.627859-28.22065 28.221901-28.22065C288.57673 407.870815 301.218351 420.502428 301.218351 436.091466L301.218351 436.091466zM356.821464 573.181426c5.702178-1.42617 11.102858-2.135502 16.199539-2.135502 10.295946 0 19.327105 2.902381 26.979632 8.688377 21.644005 16.375934 22.90504 49.865907 22.943822 51.28332 0.141366 4.617538-3.484108 8.468197-8.097893 8.609563-4.514954 0.073811-8.478205-3.489112-8.614567-8.10665-0.010008-0.263967-1.237265-27.033427-16.32214-38.444037-7.305993-5.527034-16.820048-6.715509-29.027562-3.670511-4.521209 1.123422-9.026154-1.602565-10.145823-6.083741C349.618055 578.8460729999999 352.340288 574.3010939999999 356.821464 573.181426L356.821464 573.181426zM901.530809 513.25977L600.482598 513.25977c-4.617538 0-8.366864-3.743071-8.366864-8.36186 0-4.617538 3.748075-8.365613 8.366864-8.365613l301.048211 0c4.617538 0 8.36186 3.743071 8.36186 8.365613C909.891418 509.516699 906.148347 513.25977 901.530809 513.25977L901.530809 513.25977zM901.530809 362.73503900000003L600.482598 362.73503900000003c-4.617538 0-8.366864-3.743071-8.366864-8.36186 0-4.622542 3.748075-8.366864 8.366864-8.366864l301.048211 0c4.617538 0 8.36186 3.743071 8.36186 8.366864C909.891418 358.99196800000004 906.148347 362.73503900000003 901.530809 362.73503900000003L901.530809 362.73503900000003zM779.227979 436.091466c0 15.584034-12.627859 28.221901-28.221901 28.221901-15.584034 0-28.226906-12.637867-28.226906-28.221901 0-15.589038 12.64162-28.22065 28.226906-28.22065C766.60012 407.870815 779.227979 420.502428 779.227979 436.091466L779.227979 436.091466zM623.998139 579.730548c7.652528-5.785996 16.683686-8.689628 26.979632-8.689628 5.091677 0 10.502365 0.714336 16.199539 2.140506 4.481176 1.119669 7.203409 5.659643 6.083741 10.135815-1.119669 4.481176-5.654639 7.222175-10.144572 6.083741-12.187498-3.044998-21.687791-1.866531-28.983776 3.635482-15.261269 11.494429-16.355917 38.230112-16.365926 38.499082-0.14637 4.612534-4.148403 8.248016-8.615818 8.087885-4.613785-0.142617-8.239259-3.993276-8.097893-8.610814C601.093099 629.595204 602.354133 596.110235 623.998139 579.730548L623.998139 579.730548zM603.810328 164.755129c-0.522929 18.119864-15.158685 32.770633-32.12135 31.603425-15.48145-1.017084-24.082256 4.773916-40.883538 16.116971-7.334767 4.950311-15.647836 10.55616-26.374136 16.83506-19.890067 11.645803-36.802691 11.323039-48.013137-0.015012-14.12784-14.304234-14.210407-41.147505-14.171626-44.162478l0.04879-0.776887c4.422378-41.753002 66.489544-56.911687 107.134136-56.911687 2.853591 0 5.61961 0.078815 8.249267 0.230189C592.453511 129.65883799999995 604.260697 148.88836300000003 603.810328 164.755129zM556.721699 144.372158c-34.213066-1.984128-94.042146 10.941476-97.756443 41.366434 0 6.221354 1.661363 24.023457 9.353923 31.80359 5.942375 6.021189 14.992299 4.755151 27.663944-2.668439 10.262168-6.011181 18.340045-11.454396 25.460887-16.263341 17.744557-11.967317 30.053404-20.35795 51.360883-18.936785l0.733101 0.025021c6.983229 0 13.317175-7.208413 13.551116-15.417648C587.415629 152.91541600000005 576.063816 145.476814 556.721699 144.372158zM884.408013 842.632466c-9.283866 9.282615-9.826811 23.84331-1.214747 32.455374 8.613316 8.613316 23.172759 8.067868 32.456625-1.214747l26.087651-26.0864 9.147504 9.146253-26.087651 26.087651C910.434363 897.384882 887.699463 897.940338 874.021993 884.260365c-13.679972-13.678721-13.124517-36.409868 1.239767-50.774152l26.087651-26.087651 9.147504 9.147504L884.408013 842.632466 884.408013 842.632466 884.408013 842.632466zM1003.504462 786.024779c9.282615-9.283866 9.826811-23.84331 1.215998-32.455374-8.615818-8.613316-23.17401-8.069119-32.456625 1.214747l-25.642285 25.638532-9.145002-9.148755 25.637281-25.637281c14.365535-14.365535 37.099184-14.919739 50.779156-1.241018 13.678721 13.678721 13.123265 36.411119-1.242269 50.775403l-25.638532 25.639783-9.148755-9.148755L1003.504462 786.024779 1003.504462 786.024779zM931.247687 765.871997L931.247687 765.871997l0.038782-28.971266c0.006255-3.106298-2.509559-5.61961-5.617108-5.615857-3.105047 0.003753-5.627116 2.527073-5.630869 5.633371l0 0-0.040033 28.968764c-0.005004 3.105047 2.509559 5.623363 5.618359 5.618359C928.721865 771.501615 931.245185 768.979546 931.247687 765.871997L931.247687 765.871997 931.247687 765.871997zM911.215003 774.192573c0.001251-1.439931-0.545447-2.878611-1.642597-3.97451l-20.458032-20.458032c-2.195551-2.193049-5.757223-2.189296-7.956527 0.011259-2.199304 2.198053-2.204308 5.762227-0.011259 7.955276l20.459284 20.456781c2.193049 2.1943 5.754721 2.189296 7.956527-0.010008C910.660799 777.073686 911.213752 775.632504 911.215003 774.192573L911.215003 774.192573 911.215003 774.192573zM902.893177 794.224005c0.005004-3.105047-2.509559-5.622112-5.617108-5.617108l-28.970015 0.040033c-3.106298 0.003753-5.628367 2.528324-5.634622 5.633371-0.002502 3.107549 2.512061 5.622112 5.61961 5.618359l28.968764-0.041284C900.366104 799.854874 902.890675 797.332805 902.893177 794.224005L902.893177 794.224005 902.893177 794.224005zM1027.392808 833.004568c0.002502-3.107549-2.512061-5.622112-5.61961-5.618359l-28.968764 0.037531c-3.1088 0.006255-5.630869 2.528324-5.635873 5.634622-0.002502 3.107549 2.512061 5.622112 5.61961 5.618359l28.970015-0.040033C1024.865735 838.631684 1027.387804 836.109616 1027.392808 833.004568L1027.392808 833.004568 1027.392808 833.004568zM1010.556497 873.532815c0.003753-1.43868-0.545447-2.879862-1.641346-3.975761l-20.458032-20.456781c-2.1943-2.1943-5.755972-2.189296-7.955276 0.010008-2.201806 2.199304-2.205559 5.762227-0.011259 7.956527l20.458032 20.45553c2.1943 2.1943 5.755972 2.189296 7.955276-0.010008C1010.004794 876.413929 1010.555246 874.971495 1010.556497 873.532815L1010.556497 873.532815 1010.556497 873.532815zM970.026999 890.366625l0.041284-28.968764c0.002502-3.107549-2.512061-5.623363-5.61961-5.61961-3.106298 0.005004-5.629618 2.527073-5.63212 5.633371l-0.041284 28.970015c-0.002502 3.106298 2.512061 5.622112 5.61961 5.618359C967.499926 895.993741 970.021995 893.474174 970.026999 890.366625L970.026999 890.366625 970.026999 890.366625zM970.026999 890.366625"  horiz-adv-x="1028" />

    
    <glyph glyph-name="delete1" unicode="&#58925;" d="M512-128C229.236364-128 0 101.236364 0 384S229.236364 896 512 896s512-229.236364 512-512S794.763636-128 512-128zM512 849.454545C254.929455 849.454545 46.545455 641.070545 46.545455 384s208.384-465.454545 465.454545-465.454545 465.454545 208.384 465.454545 465.454545S769.070545 849.454545 512 849.454545zM709.469091 614.376727l32.907636-32.907636L314.530909 153.623273l-32.907636 32.907636L709.469091 614.376727zM314.530909 614.376727l427.869091-427.869091-32.907636-32.907636L281.623273 581.469091 314.530909 614.376727z"  horiz-adv-x="1024" />

    
    <glyph glyph-name="huifu" unicode="&#59308;" d="M834.37778 179.86167l-85.74999 0c-11.879562 0-21.505803 9.657964-21.505803 21.441335 0 11.879562 9.625218 21.537526 21.505803 21.537526l85.74999 0c23.663956 0 42.97886 19.266809 42.97886 42.97886l0 429.788603c0 23.712051-19.314904 42.97886-42.97886 42.97886l-644.682905 0c-23.712051 0-42.97886-19.266809-42.97886-42.97886l0-429.788603c0-23.712051 19.266809-42.97886 42.97886-42.97886l365.224122 0c5.692652 0 11.17655-2.318812 15.173584-6.299473l193.46934-193.404871c8.394181-8.425903 8.394181-22.032806 0-30.379914-4.14132-4.204765-9.673313-6.347568-15.141862-6.347568-5.516644 0-11.048637 2.142803-15.189957 6.347568L546.029536 179.86167 189.694875 179.86167c-47.455825 0-86.005816 38.533618-86.005816 85.957721l0 429.788603c0 47.376007 38.549991 85.957721 86.005816 85.957721l644.682905 0c47.424102 0 85.957721-38.581714 85.957721-85.957721l0-429.788603C920.335501 218.395288 881.801882 179.86167 834.37778 179.86167L834.37778 179.86167zM318.631456 437.734832c-23.760147 0-42.97886 19.218714-42.97886 42.97886s19.218714 42.97886 42.97886 42.97886c23.712051 0 42.97886-19.218714 42.97886-42.97886S342.343507 437.734832 318.631456 437.734832L318.631456 437.734832zM512.004605 437.734832c-23.743774 0-42.97886 19.218714-42.97886 42.97886s19.235087 42.97886 42.97886 42.97886c23.760147 0 42.97886-19.218714 42.97886-42.97886S535.763728 437.734832 512.004605 437.734832L512.004605 437.734832zM705.441199 437.734832c-23.760147 0-42.97886 19.218714-42.97886 42.97886s19.218714 42.97886 42.97886 42.97886c23.712051 0 42.97886-19.218714 42.97886-42.97886S729.15325 437.734832 705.441199 437.734832L705.441199 437.734832z"  horiz-adv-x="1024" />

    
    <glyph glyph-name="wancheng" unicode="&#59315;" d="M426.046884 104.615918c-5.516644 0-10.984169 2.142803-15.205307 6.332219L146.716015 375.120772l-49.278333-49.278333c-8.394181-8.394181-22.032806-8.394181-30.426987 0-8.378831 8.362458-8.378831 22.032806 0 30.395264l64.500013 64.451918c8.378831 8.394181 21.98471 8.394181 30.363542 0L426.046884 156.533358 926.586878 657.073352c8.394181 8.394181 22.032806 8.394181 30.426987 0 8.394181-8.425903 8.394181-22.032806 0-30.379914l-515.746324-515.746324C437.047426 106.758722 431.578878 104.615918 426.046884 104.615918L426.046884 104.615918z"  horiz-adv-x="1024" />

    
    <glyph glyph-name="delete" unicode="&#58939;" d="M677.35552 691.2l0 61.44c0 33.91488-29.61408 61.44-66.1504 61.44l-198.49216 0c-36.57728 0-66.19136-27.52512-66.19136-61.44l0-61.44-264.64256 0 0-61.44 99.24608 0 0-614.4c0-33.95584 29.65504-61.44 66.1504-61.44l529.32608 0c36.57728 0 66.19136 27.48416 66.19136 61.44l0 614.4 99.24608 0 0 61.44L677.35552 691.2 677.35552 691.2zM412.71296 752.64l198.49216 0 0-61.44-198.49216 0L412.71296 752.64 412.71296 752.64zM776.6016 15.360000000000014L247.27552 15.360000000000014l0 614.4 529.32608 0L776.6016 15.360000000000014 776.6016 15.360000000000014zM346.5216 537.6l66.19136 0 0-430.08-66.19136 0L346.5216 537.6 346.5216 537.6zM478.86336 537.6l66.1504 0 0-430.08-66.1504 0L478.86336 537.6 478.86336 537.6zM611.20512 537.6l66.1504 0 0-430.08-66.1504 0L611.20512 537.6 611.20512 537.6zM611.20512 537.6"  horiz-adv-x="1024" />

    
    <glyph glyph-name="vs" unicode="&#59205;" d="M427.52 572.16C410.88 577.92 392.96 568.96 387.84 552.32L290.56 261.12 193.28 552.32c-5.76 16.64-23.68 25.6-40.32 19.84-16.64-5.76-25.6-23.68-19.84-40.32l127.36-381.44c4.48-12.8 16.64-21.76 30.08-21.76s25.6 8.96 30.08 21.76L448 531.84C453.76 548.48 444.16 566.4 427.52 572.16zM480 832C215.04 832 0 616.96 0 352 0 87.04 215.04-128 480-128c264.96 0 480 215.04 480 480C960 616.96 744.96 832 480 832zM480-64C250.24-64 64 122.24 64 352 64 581.76 250.24 768 480 768 709.76 768 896 581.76 896 352 896 122.24 709.76-64 480-64zM608.64 510.08c56.32 0 95.36-26.24 95.36-63.36 0-17.28 14.08-32 32-32 17.92 0 32 14.08 32 32 0 73.6-67.2 127.36-159.36 127.36-97.92 0-159.36-48.64-159.36-127.36 0-76.16 64-127.36 159.36-127.36C624.64 319.36 704 316.16 704 256c0-55.04-60.16-63.36-95.36-63.36-56.32 0-95.36 26.24-95.36 63.36 0 17.28-14.08 32-32 32-17.28 0-32-14.08-32-32 0-73.6 67.2-127.36 159.36-127.36 97.92 0 159.36 48.64 159.36 127.36 0 76.16-64 127.36-159.36 127.36-16 0-95.36 3.2-95.36 63.36C513.28 501.76 572.8 510.08 608.64 510.08z"  horiz-adv-x="1024" />

    
    <glyph glyph-name="dianhua" unicode="&#58963;" d="M608 876.8c-32 0-57.6 0-89.6-6.4-6.4 0-12.8-12.8-12.8-19.2C505.6 838.4 512 832 524.8 838.4 550.4 844.8 576 844.8 608 844.8c211.2 0 390.4-172.8 390.4-390.4 0-83.2-25.6-166.4-76.8-236.8-6.4-6.4-6.4-19.2 0-19.2 0 0 6.4 0 6.4 0 6.4 0 6.4 0 12.8 6.4 57.6 70.4 83.2 160 83.2 256C1024 684.8 838.4 876.8 608 876.8zM608 710.4c-19.2 0-44.8 0-64-6.4-6.4 0-12.8-12.8-12.8-19.2 0-6.4 12.8-12.8 19.2-12.8 19.2 6.4 38.4 6.4 57.6 6.4 134.4 0 243.2-108.8 243.2-243.2 0-44.8-12.8-83.2-32-121.6-6.4-6.4 0-19.2 6.4-19.2 0 0 6.4 0 6.4 0 6.4 0 12.8 0 12.8 6.4 25.6 38.4 38.4 89.6 38.4 134.4C876.8 588.8 755.2 710.4 608 710.4zM678.4 339.2c0 0 6.4 0 6.4 0 6.4 0 12.8 0 12.8 6.4 12.8 19.2 19.2 44.8 19.2 70.4 0 76.8-64 140.8-140.8 140.8-12.8 0-25.6 0-32-6.4-6.4 0-12.8-12.8-12.8-19.2 0-6.4 12.8-12.8 19.2-12.8 6.4 0 19.2 0 25.6 0 64 0 108.8-51.2 108.8-108.8 0-19.2-6.4-38.4-12.8-57.6C672 352 672 345.6 678.4 339.2zM640 224c-57.6 0-134.4-64-134.4-64-185.6 25.6-326.4 185.6-326.4 384 0 6.4 0 19.2 0 25.6l6.4 0c6.4 0 12.8 0 12.8 0 89.6 0 160 70.4 160 160S294.4 896 204.8 896c-64 0-121.6-38.4-147.2-89.6 0-6.4-6.4-12.8-6.4-19.2C19.2 710.4 0 627.2 0 544 0 185.6 275.2-102.4 620.8-128l19.2 0c96 0 172.8 76.8 172.8 172.8S736 224 640 224z"  horiz-adv-x="1024" />

    
    <glyph glyph-name="todo" unicode="&#59004;" d="M896.96728 37.09408199999996c0-58.450227-43.890626-100.94404-101.110839-100.94404L164.995333-63.849958000000015c-58.554604-1.334391-101.109816 43.827181-101.109816 100.94404L63.885518 731.031784c0 57.114812 41.241286 100.943017 101.109816 100.943017l630.861108 0c58.554604 0 101.110839-43.827181 101.110839-100.943017L896.96728 37.09408199999996zM170.690032 789.315212c-37.589107 0-64.082504-26.451442-64.082504-63.978127l0-682.548304c0-37.527708 26.492374-63.978127 64.082504-63.978127l619.472733 0c37.59013 0 64.082504 26.450419 64.082504 63.978127L854.24527 725.336062c0 37.527708-26.492374 63.978127-64.082504 63.978127L170.690032 789.3141889999999zM245.453806 597.378785l469.946208 0c5.90243 0 10.680247-4.776793 10.680247-10.680247l0-21.318538c0-5.882987-4.777817-10.659781-10.680247-10.659781L245.453806 554.7202199999999c-5.903453 0-10.68127 4.776793-10.68127 10.659781l0 21.318538C234.772536 592.601992 239.550353 597.378785 245.453806 597.378785zM245.453806 405.360494l469.946208 0c5.90243 0 10.680247-4.776793 10.680247-10.659781l0-21.340027c0-5.882987-4.777817-10.659781-10.680247-10.659781L245.453806 362.70090500000003c-5.903453 0-10.68127 4.776793-10.68127 10.659781l0 21.340027C234.772536 400.5837 239.550353 405.360494 245.453806 405.360494z"  horiz-adv-x="1024" />

    
    <glyph glyph-name="icon28" unicode="&#58930;" d="M388.222929 315.839621c0-51.78748-15.22168-93.818759-33.995255-93.818759-18.800181 0-33.995255 42.030255-33.995255 93.818759 0 51.817156 15.195074 93.818759 33.995255 93.818759C373.001249 409.65838 388.222929 367.656777 388.222929 315.839621zM707.200774 315.839621c0-51.78748-15.245216-93.818759-33.995255-93.818759-18.800181 0-34.045397 42.030255-34.045397 93.818759 0 51.817156 15.245216 93.818759 34.045397 93.818759C691.955558 409.65838 707.200774 367.656777 707.200774 315.839621zM512.50756 770.822023c-213.701127 0-386.968355-173.217087-386.968355-386.968355 0-213.69908 173.267229-386.966309 386.968355-386.966309 213.725686 0 386.991891 173.267229 386.991891 386.966309C899.500475 597.605959 726.233246 770.822023 512.50756 770.822023zM512.50756 41.43904c-189.104939 0-342.414627 153.308665-342.414627 342.414627 0 8.601912 0.670266 17.074887 1.287319 25.495674C224.328162 581.819414 352.735693 575.456496 352.735693 575.456496c86.814228-73.728188 149.57155-65.487503 160.28659-63.378469 10.661827-2.110057 73.448826-10.350742 160.236448 63.378469 0 0 126.550231 6.260587 180.195012-162.217568 0.849344-9.735735 1.493004-19.443841 1.493004-29.385261C854.945723 194.748728 701.637058 41.43904 512.50756 41.43904z"  horiz-adv-x="1024" />

    
    <glyph glyph-name="zengjiashichang" unicode="&#59470;" d="M828.181661 5.384893l-28.861328 0c-5.077645 105.10071-28.797883 184.28005-63.262836 243.681952l-0.460488 1.180895c-36.19741 62.116733-84.062558 102.677521-134.453225 127.377062 50.389644 25.162076 98.255815 65.260329 134.453225 127.311571l0.460488 1.242294c35.646871 61.85579 60.118216 145.428184 63.823608 257.362532l28.300556 0c19.334347 0 34.535561 15.167444 34.535561 34.235732 0 19.051915-15.201214 34.219359-34.535561 34.219359L195.183889 831.996291c-19.102057 0-34.500768-15.167444-34.500768-34.219359 0-19.068288 15.398712-34.235732 34.500768-34.235732l28.337395 0c4.123924-111.934349 28.110221-195.506742 63.792908-257.362532l0.715291-1.242294c36.172851-62.051241 83.807754-102.148471 134.387733-127.311571-50.585095-24.699542-98.218976-65.260329-134.387733-127.377062l-0.715291-1.180895c-34.175357-59.401902-57.966203-138.581242-63.038732-243.681952l-29.092595 0c-19.102057 0-34.500768-15.167444-34.500768-33.745569 0-19.520589 15.398712-34.725896 34.500768-34.725896l632.997772 0c19.334347 0 34.535561 15.204283 34.535561 34.725896C862.717222-9.783575 847.516008 5.384893 828.181661 5.384893L828.181661 5.384893zM322.985624 228.295775l0.527003 1.472538c41.542138 71.358211 86.912465 109.459994 147.094126 128.067794l2.358721 1.441838 0.491187 0c1.24741 0.490164 2.430352 0.980327 3.475148 1.968841l0.425695 0.453325 1.475608 1.016143 0.226151 0.491187 1.478677 1.441838 0.25992 0.491187c0.979304 1.016143 1.442862 2.198062 2.459005 3.438309l0 0.456395c1.016143 1.50733 1.475608 3.215228 1.475608 4.91801l0.225127 0.459464L484.957599 375.922021l0.229221 1.211595 0 0.951675-0.229221 1.24127 0 0.98749-0.225127 0.980327c0 1.702782-0.459464 3.406586-1.475608 4.883217l0 0.490164c-1.016143 1.436722-1.479701 2.452865-2.459005 3.40454l-0.25992 0.756223-1.478677 1.211595-0.226151 0-1.475608 1.436722-0.425695 0.496304c-1.044796 0.751107-2.228761 1.471514-3.475148 2.222621l-0.491187 0.26606-2.358721 0.952698c-60.182684 18.080797-105.551988 56.707536-147.094126 128.552841l-0.527003 0.491187c-32.30066 56.482409-54.248531 133.439128-58.149375 237.081627l493.759567 0c-3.475148-103.642498-25.491581-180.599218-58.184167-237.081627l-0.490164-0.491187c-41.345664-71.845305-86.917582-110.472044-146.57531-128.552841l-2.949168-0.952698-0.490164-0.26606c-1.212618-0.751107-2.228761-1.471514-3.471055-2.222621l-0.455371-0.496304-1.476631-1.436722-1.673106-1.211595-0.230244-0.756223c-0.786922-0.951675-1.471514-1.962701-1.997494-3.40454l-0.48607-0.490164c-0.460488-1.476631-0.98749-3.180436-1.482771-4.883217l0-0.980327 0-0.98749 0-1.24127 0-0.951675 0-1.211595 0-1.50733 0-0.459464c0.49528-1.702782 1.022283-3.41068 1.482771-4.91801l0.48607-0.456395c0.525979-1.240247 1.215688-2.422166 1.997494-3.438309l0.230244-0.491187 1.673106-1.441838 0-0.491187 1.476631-1.016143 0.455371-0.453325c1.011027-0.988514 2.258437-1.478677 3.471055-1.968841l0.490164 0 2.949168-1.441838c59.657728-18.608823 105.229646-56.709583 146.57531-128.067794l0.490164-1.472538c17.327644-29.356608 31.221072-65.030086 41.541115-106.571201 2.197038-11.825326 9.54847-37.898145 11.571546-71.587432-32.848129 29.080316-124.866892 50.414203-234.889705 52.066843L518.634606 425.992393c1.107217 0.339738 2.208295 0.73985 3.289929 1.230014l0.260943 0.491187 5.863545 2.198062 0.525979 0.25992 0.490164 0c39.84345 12.44852 72.079642 32.237215 98.454336 58.186214 28.436656 27.846208 49.898457 62.541405 64.50513 100.706633 3.970428 10.745738-0.881067 22.478967-11.661597 26.374694-10.745738 4.391007-22.733771-0.981351-26.929326-11.762905-12.874215-32.498158-30.764678-62.312184-55.005778-86.030375-21.527292-21.032012-48.101531-37.610596-81.349773-47.895847l-0.981351-0.465604-2.428306-0.48607-1.9934-0.981351-1.968841 0.981351-1.471514 0.48607-1.933025 0.465604c-32.698726 10.285251-59.862389 26.863834-81.153298 47.895847-24.441669 23.718191-42.263569 53.532217-55.206346 86.030375-3.89675 10.780531-16.147772 16.152888-26.369577 11.762905-10.779507-3.895727-15.697517-15.628956-11.796674-26.374694 14.71105-38.165228 35.743062-72.860425 64.538899-100.706633 25.911136-25.947975 58.676377-45.737694 98.254791-58.186214l0.231267 0 0.74906-0.25992 5.373381-2.198062 1.471514-0.491187c0.762363-0.36532 1.568728-0.74906 2.475378-1.140986l0-323.772035c-103.080703 0-192.22193-17.268292-234.838539-42.34441 1.466398 16.551978 4.891404 35.316344 11.387351 61.760622C291.701107 163.755854 305.851385 198.939167 322.985624 228.295775L322.985624 228.295775zM322.985624 228.295775"  horiz-adv-x="1024" />

    
    <glyph glyph-name="jieshushijian" unicode="&#58909;" d="M512.96 830.848c-224.384 0-406.976-182.592-406.976-406.976s182.592-406.976 406.976-406.976 406.976 182.592 406.976 406.976S737.344 830.848 512.96 830.848L512.96 830.848zM512.96 70.208c-195.008 0-353.728 158.656-353.728 353.664 0 195.008 158.656 353.664 353.728 353.664 195.008 0 353.664-158.656 353.664-353.664C866.688 228.864 708.032 70.208 512.96 70.208L512.96 70.208zM512.96 70.208M292.736 34.624c-11.904 8.64-28.544 6.08-37.184-5.824l-81.92-112.32c-8.64-11.904-6.08-28.544 5.824-37.184 4.736-3.456 10.24-5.12 15.68-5.12 8.192 0 16.32 3.776 21.504 10.944l81.92 112.32C307.2 9.344 304.576 25.984 292.736 34.624L292.736 34.624zM292.736 34.624M764.416 28.8c-8.704 11.904-25.344 14.464-37.184 5.824-11.904-8.64-14.464-25.344-5.824-37.184l81.92-112.32c5.184-7.168 13.312-10.944 21.504-10.944 5.44 0 10.944 1.664 15.68 5.12 11.904 8.64 14.464 25.344 5.824 37.184L764.416 28.8 764.416 28.8zM764.416 28.8M142.592 723.712C157.056 800 225.024 851.328 293.824 838.336 308.288 835.648 322.24 845.056 324.928 859.52 327.68 873.984 318.208 887.936 303.744 890.688 205.888 909.184 110.208 838.784 90.304 733.632 87.552 719.232 97.024 705.28 111.488 702.528 113.152 702.208 114.816 702.08 116.48 702.08 129.024 702.08 140.16 710.976 142.592 723.712L142.592 723.712zM142.592 723.712M933.696 733.696c-19.968 105.088-115.776 175.424-213.504 156.992-14.464-2.752-23.936-16.64-21.184-31.104 2.752-14.464 16.704-23.872 31.104-21.184 68.8 12.992 136.768-38.336 151.232-114.56 2.432-12.736 13.568-21.696 26.112-21.696 1.664 0 3.328 0.128 4.992 0.448C926.976 705.28 936.448 719.232 933.696 733.696L933.696 733.696zM933.696 733.696M715.904 412.736c14.72 0 26.624 11.904 26.624 26.624 0 14.72-11.904 26.624-26.624 26.624L503.68 465.984c-14.72 0-26.624-11.904-26.624-26.624l0-232.064c0-14.72 11.904-26.624 26.624-26.624 14.72 0 26.624 11.904 26.624 26.624l0 205.44L715.904 412.736 715.904 412.736zM715.904 412.736"  horiz-adv-x="1024" />

    
    <glyph glyph-name="circle" unicode="&#59005;" d="M512 384m-512 0a23 23 0 1 1 1024 0 23 23 0 1 1-1024 0Z"  horiz-adv-x="1024" />

    
    <glyph glyph-name="dingwei1" unicode="&#58927;" d="M896 512c0-249.6-384-640-384-640s-384 390.4-384 640 172.8 384 384 384 384-134.4 384-384z"  horiz-adv-x="1024" />

    
    <glyph glyph-name="changyonghuifu" unicode="&#59025;" d="M911.358 166.742c0-37.19-30.26-67.32-67.5-67.32L567.319 99.422c-18.505 0-47.11-7.29-63.235-15.92l-209.257-112.08c-32.992-17.67-59.732-1.91-59.732 35.86l0 58.21c0 18.74-14.995 33.93-34.132 33.93l-33.497 0c-37.345 0-67.625 30.37-67.625 67.32L99.841 708.368c0 37.177 30.332 67.315 67.792 67.315l675.931 0c37.445 0 67.795-30.372 67.795-67.315L911.359 166.742 911.358 166.742zM235.094 167.052c37.345 0 67.625-30.48 67.625-67.47l0-17.28c0-18.56 13.15-25.84 29.145-16.39l142.157 83.92c16.1 9.51 44.227 17.22 63.047 17.22l272.759 0c18.72 0 33.9 15.03 33.9 33.84L843.727 674.213c0 18.69-15.39 33.845-33.54 33.845L201.004 708.058c-18.525 0-33.54-15.035-33.54-33.845l0-473.321c0-18.69 14.995-33.84 34.13-33.84L235.094 167.052 235.094 167.052zM302.719 336.112c0 18.68 15.405 33.82 33.895 33.82l337.964 0c18.72 0 33.9-15.01 33.9-33.82 0-18.67-15.42-33.81-33.9-33.81L336.617 302.302C317.894 302.302 302.719 317.312 302.719 336.112L302.719 336.112zM302.719 538.991c0 18.675 15.405 33.812 33.895 33.812l337.964 0c18.72 0 33.9-15.007 33.9-33.812 0-18.67-15.42-33.81-33.9-33.81L336.617 505.181C317.894 505.181 302.719 520.186 302.719 538.991L302.719 538.991z"  horiz-adv-x="1024" />

    
    <glyph glyph-name="uploadphoto" unicode="&#58949;" d="M167.595566 724.859917c0 19.883495 0 36.926491 0 55.389736 39.76699 0 79.178918 0 120.366158 0 0-17.753121 0-35.861304 0-55.389736 14.912621 0 27.694868-1.065187 40.477115 0.355062 5.325936 0.710125 11.361997 5.325936 15.267684 9.586685 39.411928 41.542302 78.113731 83.79473 117.525659 125.337032 23.789182 25.209431 52.549237 36.216366 88.765603 35.506241 91.606103-2.130374 183.567268-1.775312 275.17337 0 33.375867 0.710125 60.36061-9.586685 82.729542-32.665742 39.411928-40.832178 78.113731-82.37448 116.460472-124.271845 9.586685-10.651872 19.17337-14.557559 33.375867-14.202497 65.686546 0.710125 131.373093 0.355062 197.059639 0.355062 64.266297 0 109.359223-45.092926 109.359223-109.359223 0-208.066574-0.355062-416.488211 0.355062-624.554785 0.355062-55.034674-42.252427-118.945908-118.235784-118.590846-373.170596 1.775312-746.696255 1.42025-1119.866852 0C60.72178-128.3550620000001-0.704018-68.70457699999997 0.006107-0.8876559999999927 2.491544 202.56310699999995 1.781419 406.01387 0.361169 609.4646319999999c-0.710125 64.621359 53.969487 113.975035 114.68516 115.040222C131.734262 725.214979 148.777258 724.859917 167.595566 724.859917zM686.696814-70.47988899999996c183.92233 0 367.84466 0 552.122053 0 47.223301 0 68.882108 21.303745 68.882108 69.237171 0 202.740638 0 405.836338 0 608.576976 0 42.252427-18.463245 60.36061-60.715673 60.36061-71.012483 0-142.024965 1.065187-213.037448-0.355062-22.01387-0.355062-36.571429 7.811373-50.418863 23.434119-36.571429 41.897365-73.49792 83.439667-110.424411 124.981969-14.557559 16.332871-31.245492 23.789182-54.324549 23.434119-85.925104-1.42025-171.495146-1.775312-257.42025 0-28.760055 0.710125-50.0638-7.456311-68.527046-28.404993-33.730929-38.701803-68.527046-76.693481-101.902913-115.750347-14.912621-17.753121-30.535368-28.049931-55.389736-27.339806-69.237171 1.775312-138.474341 0.710125-207.711512 0.710125-48.998613 0-70.65742-21.658807-70.65742-69.947295 0-197.059639 0-394.119279 0-590.823856 0-51.48405 25.919556-77.758669 77.048544-77.758669C318.497092-70.47988899999996 502.419422-70.47988899999996 686.696814-70.47988899999996zM987.079616 316.538141c0-166.524272-139.184466-304.998613-305.708738-304.288488-165.814147 0.710125-303.578363 138.829404-303.223301 304.643551 0 166.524272 138.829404 304.998613 305.353675 304.288488C849.3154 620.471567 987.079616 482.352288 987.079616 316.538141zM683.14619 562.5963939999999c-135.988904 0.710125-244.993065-107.583911-246.413315-244.28294-1.42025-136.343967 107.938974-246.768377 245.348128-247.478502 135.988904-0.710125 245.348128 107.583911 246.413315 244.28294C929.559505 451.461859 820.200282 561.8862690000001 683.14619 562.5963939999999zM1082.591405 551.944521c-19.528433 0-37.991678 0-57.875173 0 0 19.17337 0 37.991678 0 58.230236 18.818308 0 37.991678 0 57.875173 0C1082.591405 591.001387 1082.591405 572.538141 1082.591405 551.944521zM681.370878 202.91816900000003c-62.846047 0.355062-112.554785 50.418863-112.199723 114.330097 0 63.911234 50.773925 113.26491 115.750347 112.909847 62.490985-0.355062 111.84466-51.128988 111.489598-115.395284C795.700975 252.27184499999998 745.282113 202.91816900000003 681.370878 202.91816900000003z"  horiz-adv-x="1365" />

    
    <glyph glyph-name="kaishishijian" unicode="&#58914;" d="M528.064 827.968c-222.72 0-404.224-181.312-404.224-404.224 0-222.912 181.504-404.288 404.224-404.288 223.04 0 404.288 181.376 404.288 404.288C932.352 646.656 751.104 827.968 528.064 827.968L528.064 827.968M528.064 72.32c-193.728 0-351.232 157.632-351.232 351.424 0 193.664 157.504 351.296 351.232 351.296 193.792 0 351.424-157.568 351.424-351.296C879.488 229.952 721.984 72.32 528.064 72.32L528.064 72.32M528.064 72.32M309.312 37.184c-11.776 8.64-28.352 6.016-36.992-6.016l-81.28-111.36c-8.64-12.032-6.144-28.48 5.76-36.864 4.608-3.648 10.24-5.248 15.616-5.248 8.128 0 16.128 3.776 21.376 11.008l81.28 111.488C323.712 11.968 321.088 28.416 309.312 37.184L309.312 37.184M309.312 37.184M777.856 31.168c-8.512 12.032-25.024 14.656-36.864 6.016-11.776-8.768-14.4-25.28-5.76-36.992l81.344-111.488c5.12-7.232 13.248-11.008 21.376-11.008 5.376 0 10.88 1.6 15.488 5.248 11.904 8.384 14.4 24.896 5.888 36.864L777.856 31.168 777.856 31.168M777.856 31.168M160.192 721.536c14.4 75.776 81.856 126.72 150.272 113.92 14.4-2.752 28.224 6.656 30.848 20.992 2.752 14.4-6.72 28.288-20.992 30.976C223.104 905.856 128 835.904 108.224 731.392c-2.624-14.336 6.72-28.16 21.12-30.912C130.944 700.16 132.736 700.032 134.336 700.032 146.816 700.032 157.824 708.928 160.192 721.536L160.192 721.536M160.192 721.536M945.984 731.456c-19.776 104.384-114.752 174.272-212.032 155.968-14.4-2.688-23.744-16.512-20.992-30.848 2.752-14.4 16.512-23.68 30.848-21.056 68.352 12.928 135.872-38.144 150.272-113.856 2.368-12.608 13.376-21.504 25.856-21.504 1.6 0 3.392 0.064 4.992 0.384C939.52 703.232 948.864 717.12 945.984 731.456L945.984 731.456M945.984 731.456M729.856 432.768 545.344 432.768 545.344 636.8c0 14.656-11.904 26.496-26.496 26.496S492.48 651.456 492.48 636.8l0-230.528c0-14.656 11.776-26.432 26.368-26.432l211.008 0c14.528 0 26.24 11.84 26.24 26.432C756.096 420.992 744.384 432.768 729.856 432.768L729.856 432.768M729.856 432.768"  horiz-adv-x="1024" />

    
    <glyph glyph-name="compare" unicode="&#58896;" d="M247.1424 101.0176c-1.0752 0-2.176 0.0768-3.2768 0.2304-10.8032 1.3568-19.6096 9.3952-21.9648 20.0448L112.64 613.888c-3.0976 13.952 5.7088 27.7504 19.6608 30.848 13.8752 3.1232 27.7504-5.7088 30.848-19.6608l93.6704-422.3232 218.5472 428.4928c6.5024 12.7232 22.016 17.792 34.7904 11.2896 12.7232-6.5024 17.7664-22.0672 11.2896-34.7904l-251.2384-492.6208C265.7024 106.3936 256.768 101.0176 247.1424 101.0176zM669.184 102.2208c-4.8128 0-9.7024 0.128-14.6176 0.3584-58.4448 3.0976-104.9344 22.912-134.4 57.3696-24.1664 28.2112-34.8416 63.7696-30.848 102.784l0.5888 5.0176c1.9712 14.1568 14.9248 24.0128 29.2096 22.0672 14.1568-1.9712 24.0128-15.0272 22.0672-29.2096l-0.3584-3.1488c-2.5088-24.576 3.9424-46.6432 18.6624-63.8208 20.0704-23.424 53.888-37.0432 97.8432-39.3728 85.9648-4.48 151.8848 41.9584 169.9584 87.9616 18.0736 45.9776-27.6992 74.7776-48.1792 85.0176-10.3424 5.1712-31.4624 10.9056-53.7856 16.9984-65.3312 17.7664-146.6368 39.8848-174.8736 95.0784-12.1088 23.6288-12.8256 49.9968-2.176 78.336 19.0208 50.56 51.1488 86.2464 95.488 106.0096 51.5072 22.9632 119.8848 22.0416 182.8608-2.5344 75.8016-29.568 89.7792-108.3136 86.5792-145.8176-1.2032-14.2336-13.568-24.8064-27.9808-23.6032-14.208 1.2032-24.7296 13.6448-23.6032 27.8528l0 0c0.2304 2.8672 4.5568 70.5792-53.7856 93.3376-50.3552 19.6352-103.7824 20.9664-142.976 3.4816-31.2576-13.9264-54.1696-39.8592-68.1472-76.9792-7.1936-19.072-3.5584-30.0032-0.2048-36.5568 17.792-34.816 92.7488-55.1936 142.3872-68.7104 26.0096-7.0656 48.4352-13.1584 63.36-20.6336 68.1728-34.0992 96.2304-91.648 73.1904-150.2208C851.2256 161.7152 773.4272 102.2208 669.184 102.2208zM1024 681.3952 1024 163.072c0-14.08-11.52-25.6-25.6-25.6s-25.6 11.52-25.6 25.6L972.8 681.3952c0 33.536-28.416 60.928-61.952 60.928L112.128 742.3232C78.592 742.3232 51.2 717.7472 51.2 684.2112l0-597.8624c0-33.536 27.392-60.928 60.928-60.928l742.7584 0c14.08 0 25.6-11.52 25.6-25.6s-11.52-25.6-25.6-25.6L112.128-25.7792c-61.952 0-112.128 50.176-112.128 112.128L0 684.2112c0 61.952 50.176 109.312 112.128 109.312l798.72 0C972.544 793.5232 1024 743.3472 1024 681.3952z"  horiz-adv-x="1024" />

    
    <glyph glyph-name="Done" unicode="&#58916;" d="M486.4 265.6c-19.2-19.2-48-19.2-67.2-3.2l-137.6 131.2-32-35.2 137.6-131.2c38.4-35.2 96-35.2 134.4 3.2l281.6 297.6-35.2 32L486.4 265.6zM512 844.8c-252.8 0-460.8-204.8-460.8-460.8s204.8-460.8 460.8-460.8 460.8 204.8 460.8 460.8S764.8 844.8 512 844.8zM512-28.799999999999955c-227.2 0-412.8 185.6-412.8 412.8s185.6 412.8 412.8 412.8 412.8-185.6 412.8-412.8S739.2-28.799999999999955 512-28.799999999999955z"  horiz-adv-x="1024" />

    
    <glyph glyph-name="webicon319" unicode="&#59056;" d="M341.056 272.992c-17.824-9.376-40.16-14.048-67.04-14.048-34.688 0-62.4 11.008-83.136 33.056-20.704 22.016-31.104 51.136-31.104 87.36 0 39.008 11.648 70.304 35.008 94.048s52.96 35.616 88.896 35.616c23.136 0 42.24-3.264 57.344-9.824l0-32.672c-17.28 9.632-36.32 14.368-57.024 14.368-26.976 0-48.96-8.928-65.952-26.944-16.96-17.952-25.472-42.176-25.472-72.736 0-28.928 7.904-51.936 23.744-68.928 15.84-17.056 36.576-25.568 62.176-25.568 23.968 0 44.768 5.376 62.496 16.256L340.992 272.992zM566.208 263.008l-36.864 0-40.16 67.2c-8.032 13.44-15.36 22.56-22.016 27.424-6.656 4.8-14.624 7.264-23.904 7.264l-22.496 0 0-101.888-31.264 0 0 242.016 73.76 0c23.52 0 41.984-5.696 55.328-16.992 13.344-11.36 20-27.264 20-47.68 0-33.504-17.92-55.328-53.76-65.312l0-0.736c6.656-2.816 12.448-6.816 17.248-12.064 4.864-5.184 11.136-14.112 18.848-26.688L566.208 263.008zM420.736 477.696l0-85.504 36.864 0c14.272 0 25.888 4.192 34.752 12.512 8.928 8.384 13.376 19.328 13.376 32.8 0 12.64-4.064 22.432-12.192 29.568-8.128 7.072-19.936 10.624-35.456 10.624L420.736 477.696zM817.312 263.008l0 160.32c0 13.184 0.768 29.12 2.336 47.616L818.88 470.944c-2.72-11.616-5.088-19.744-7.2-24.384l-79.84-183.552-17.344 0-79.68 182.176c-1.888 4.128-4.288 12.736-7.2 25.76l-0.928 0c1.024-11.264 1.568-27.552 1.568-49.056l0-158.88L598.4 263.008l0 242.016 42.336 0 71.392-165.952c5.408-12.672 8.992-22.56 10.784-29.696l1.088 0c5.408 14.944 9.216 24.992 11.392 30.304l72.672 165.312 40.32 0 0-242.016L817.312 262.976zM272.576 544C324.224 621.152 412.16 672 512 672s187.776-50.848 239.424-128l37.408 0C733.472 639.552 630.368 704 512 704s-221.472-64.448-276.832-160L272.576 544zM751.424 224c-51.68-77.152-139.584-128-239.424-128s-187.776 50.848-239.424 128L235.168 224c55.36-95.552 158.464-160 276.832-160s221.472 64.448 276.832 160L751.424 224z"  horiz-adv-x="1024" />

    
    <glyph glyph-name="xiangxia1" unicode="&#59407;" d="M473.65467 820.21292l0.780783-738.190579L292.768927 270.333194c-4.832052 4.819772-12.654204 4.811586-17.476023-0.01842l-37.82549-37.905308c-4.819772-4.832052-4.811586-12.654204 0.01842-17.476023l228.695632-237.055021c0.231267-0.273223 0.468674-0.544399 0.727571-0.801249l1.266853-1.264806 35.269271-36.558637c2.587941-2.580778 6.031367-3.76372 9.41544-3.576455 3.390213-0.186242 6.840802 1.003863 9.42772 3.595898l35.266202 36.71111 1.189082 1.191128c0.242524 0.243547 0.464581 0.499373 0.683569 0.757247l228.234121 237.583047c4.821819 4.832052 4.813632 12.654204-0.01842 17.476023l-37.905308 37.823444c-4.830005 4.821819-12.653181 4.813632-17.475-0.01842L552.695864 83.874525l-0.778736 736.421282c-0.007163 6.825452-5.545296 12.350283-12.369725 12.343119l-53.54859-0.056282C479.175407 832.575482 473.647507 827.038372 473.65467 820.21292L473.65467 820.21292z"  horiz-adv-x="1024" />

    
    <glyph glyph-name="delete2" unicode="&#58929;" d="M512-128C229.248-128 0 101.248 0 384S229.248 896 512 896s512-229.248 512-512-229.248-512-512-512z m0 896C299.968 768 128 596.032 128 384s171.968-384 384-384 384 171.968 384 384S724.032 768 512 768z m180.992-564.992a63.936 63.936 0 0 0-90.496 0L512 293.504l-90.496-90.496a64 64 0 1 0-90.56 90.496L421.504 384l-90.56 90.496a64 64 0 0 0 0 90.56 64 64 0 0 0 90.56 0L512 474.496l90.496 90.56a64 64 0 1 0 90.496-90.56L602.496 384l90.496-90.496a63.936 63.936 0 0 0 0-90.496z"  horiz-adv-x="1024" />

    
    <glyph glyph-name="xinzeng" unicode="&#58931;" d="M892.95285 448.431451H576.43094V764.954385c0 35.815717-29.03529 64.849984-64.847937 64.849984-35.81674 0-64.851007-29.034267-64.851007-64.849984v-316.522934H130.208039c-35.815717 0-64.849984-29.036313-64.849984-64.849983s29.034267-64.84896 64.849984-64.848961h316.523957v-316.522933c0-35.81367 29.034267-64.849984 64.851007-64.849984 35.812647 0 64.847937 29.036313 64.847937 64.849984V318.73353099999997h316.52191c35.815717 0 64.851007 29.034267 64.851007 64.84896s-29.03529 64.84896-64.851007 64.84896z"  horiz-adv-x="1024" />

    
    <glyph glyph-name="chaxun" unicode="&#58886;" d="M397.312 151.086545c-181.775515 0-329.69697 147.921455-329.69697 329.69697S215.536485 810.480485 397.312 810.480485 727.04 662.55903 727.04 480.783515c0-84.340364-31.837091-164.615758-89.615515-225.993697a326.749091 326.749091 0 0 0-240.081455-103.703273z m588.8-215.226181l-0.620606 0.682666-1.148121 1.210182-282.59297 296.89794a389.864727 389.864727 0 0 1 87.319273 246.132363c0 215.970909-175.755636 391.757576-391.757576 391.757576C181.341091 872.541091 5.585455 696.785455 5.585455 480.783515s175.755636-391.757576 391.757575-391.757576c96.566303 0 190.091636 36.460606 261.616485 100.600243l282.189576-296.525576 0.093091 0.062061c5.988848-6.299152 14.273939-10.302061 23.61406-9.929697 17.252848 0.682667 30.657939 15.204848 29.975273 32.457697a30.968242 30.968242 0 0 1-8.781576 20.107636l0.093091 0.062061z"  horiz-adv-x="1024" />

    
    <glyph glyph-name="recommend" unicode="&#58894;" d="M518.741333 163.43039999999996l331.5712-134.826667V742.229333A17.066667 17.066667 0 0 1 833.28 759.466667H204.7488A17.066667 17.066667 0 0 1 187.733333 742.2464v-713.608533l331.008 134.792533zM136.533333 742.229333A68.266667 68.266667 0 0 0 204.7488 810.666667h628.5312a68.266667 68.266667 0 0 0 68.232533-68.420267v-721.322667c0-37.7856-28.450133-56.832-63.197866-42.717866l-319.556267 129.9456-319.112533-129.9456C164.795733-35.97653300000002 136.533333-16.947199999999953 136.533333 20.92373299999997V742.2464zM458.120533 415.1296l-61.781333 60.2112 85.367467 12.407467 38.178133 77.346133 38.161067-77.346133 85.367466-12.407467-61.781333-60.2112 14.592-85.009067-76.3392 40.1408-76.356267-40.1408 14.592 85.009067z m120.610134 121.344l19.285333-13.994667-5.973333 12.066134-13.312 1.928533z m-136.977067-13.994667l19.285333 13.994667-13.329066-1.928533-5.973334-12.0832z m146.397867-245.9648c35.413333-18.602667 68.317867 5.256533 61.5424 44.714667l-13.038934 76.032 55.2448 53.845333c28.637867 27.921067 16.110933 66.577067-23.5008 72.3456l-76.3392 11.093334-34.133333 69.1712c-17.7152 35.874133-58.368 35.8912-76.0832 0l-34.133333-69.1712-76.3392-11.093334c-39.594667-5.751467-52.1728-44.407467-23.517867-72.362666l55.2448-53.828267-13.038933-76.032c-6.7584-39.424 26.112-63.351467 61.5424-44.714667l68.266666 35.8912 68.283734-35.8912z"  horiz-adv-x="1024" />

    
    <glyph glyph-name="notice" unicode="&#59084;" d="M928 64H96c-17.6 0-32 14.4-32 32s14.4 32 32 32h832c17.6 0 32-14.4 32-32s-14.4-32-32-32zM832 64H192c-17.6 0-32 14.4-32 32V416c0 193.6 158.4 352 352 352s352-158.4 352-352v-320c0-17.6-14.4-32-32-32z m-608 64h576V416c0 158.4-129.6 288-288 288s-288-129.6-288-288v-288zM512-64c-88 0-160 72-160 160 0 17.6 14.4 32 32 32s32-14.4 32-32c0-52.8 43.2-96 96-96s96 43.2 96 96c0 17.6 14.4 32 32 32s32-14.4 32-32c0-88-72-160-160-160zM512 736c-17.6 0-32 14.4-32 32V832c0 17.6 14.4 32 32 32s32-14.4 32-32v-64c0-17.6-14.4-32-32-32z"  horiz-adv-x="1024" />

    
    <glyph glyph-name="fanhui" unicode="&#58880;" d="M532.526499-8.817574L139.506311 384.202615 532.526499 777.222803c12.258185 12.258185 12.432147 32.892131-0.187265 45.51052-12.707416 12.707416-32.995485 12.703323-45.511543 0.187265L75.166957 411.260877c-7.120165-7.120165-10.163477-17.065677-8.990768-26.624381-1.500167-9.755178 1.5104-20.010753 8.990768-27.491121l411.660734-411.660734c12.258185-12.258185 32.892131-12.432147 45.511543 0.187265 12.707416 12.707416 12.7023 32.995485 0.187265 45.51052z"  horiz-adv-x="1024" />

    
    <glyph glyph-name="gengduo" unicode="&#58881;" d="M492.675886-8.817574L885.696074 384.202615 492.675886 777.222803c-12.258185 12.258185-12.432147 32.892131 0.187265 45.51052 12.707416 12.707416 32.995485 12.703323 45.511543 0.187265l411.660734-411.660734c7.120165-7.120165 10.163477-17.065677 8.990768-26.624381 1.500167-9.755178-1.5104-20.010753-8.990768-27.491121L538.374694-54.515359c-12.258185-12.258185-32.892131-12.432147-45.511543 0.187265-12.707416 12.707416-12.703323 32.995485-0.187265 45.51052z"  horiz-adv-x="1024" />

    
    <glyph glyph-name="paixu-jiangxu" unicode="&#59012;" d="M771.104 203.584v435.968c0.003 0.15 0.004 0.326 0.004 0.504 0 8.811-3.682 16.761-9.592 22.397-6.196 5.915-14.592 9.548-23.837 9.548-0.062 0-0.123-0-0.185-0-18.614-0.32-33.558-14.784-33.558-32.448v-435.968l-134.304 127.296c-6.091 5.976-14.444 9.664-23.659 9.664-0.064 0-0.127-0-0.19-0.001-9.014 0-17.622-3.488-23.862-9.664-6.092-5.663-9.898-13.715-9.92-22.655 0-8.449 3.584-16.577 9.92-22.529l190.080-180.128c6.176-6.080 14.656-9.504 23.52-9.536 8.896-0.32 17.568 2.624 24.192 8.256l190.080 180.128c6.258 5.578 10.186 13.655 10.208 22.65-0.050 8.949-4.008 17.021-10.264 22.556-6.149 5.805-14.495 9.387-23.678 9.387-0.049 0-0.097-0-0.146-0-8.953 0-17.529-3.392-23.833-9.408l-130.976-126.016zM88.864 160h398.24c13.76 0 24.896-14.176 24.896-31.68 0-17.504-11.136-31.68-24.896-31.68h-398.208c-13.76-0-24.896 14.176-24.896 31.68 0 17.504 11.136 31.68 24.896 31.68zM90.656 416h266.688c14.72 0 26.656-14.176 26.656-31.68 0-17.504-11.936-31.68-26.656-31.68h-266.688c-14.72 0-26.656 14.176-26.656 31.68 0 17.504 11.936 31.68 26.656 31.68zM487.136 672h-398.272c-13.728 0-24.864-14.176-24.864-31.68 0-17.504 11.136-31.68 24.896-31.68h398.208c13.76 0 24.896 14.176 24.896 31.68 0 17.504-11.136 31.68-24.896 31.68z"  horiz-adv-x="1024" />

    
    <glyph glyph-name="paixu-shengxu" unicode="&#59013;" d="M771.104 564.4159999999999v-435.968a30.944 30.944 0 0 0-9.6-22.912c-6.304-6.08-14.944-9.536-24-9.536-18.624 0.32-33.568 14.784-33.568 32.448V564.4159999999999L569.632 437.12a33.792 33.792 0 0 0-23.84-9.664c-9.024 0-17.632 3.488-23.872 9.664a31.008 31.008 0 0 0-9.92 22.592c0 8.512 3.584 16.64 9.92 22.592L712 662.432c6.176 6.08 14.656 9.504 23.52 9.536 8.896 0.32 17.568-2.624 24.192-8.256l190.08-180.128A30.4 30.4 0 0 0 960 460.992a30.4 30.4 0 0 0-10.24-22.592 34.56 34.56 0 0 0-23.84-9.408 34.56 34.56 0 0 0-23.84 9.408L771.104 564.4159999999999zM88.864 160h398.24c13.76 0 24.896-14.176 24.896-31.68 0-17.504-11.136-31.68-24.896-31.68H88.896C75.136 96.63999999999999 64 110.81600000000003 64 128.32000000000005 64 145.82399999999996 75.136 160 88.896 160z m1.792 256h266.688c14.72 0 26.656-14.176 26.656-31.68 0-17.504-11.936-31.68-26.656-31.68H90.656C75.936 352.64 64 366.81600000000003 64 384.32 64 401.824 75.936 416 90.656 416z m396.48 256H88.864C75.136 672 64 657.8240000000001 64 640.3199999999999c0-17.504 11.136-31.68 24.896-31.68h398.208c13.76 0 24.896 14.176 24.896 31.68 0 17.504-11.136 31.68-24.896 31.68z"  horiz-adv-x="1024" />

    
    <glyph glyph-name="jinhangzhong" unicode="&#59034;" d="M746.27072 243.87072a11.37152 11.37152 0 0 1-15.488-4.3776l-0.03072-0.06144a260.7104 260.7104 0 0 0-96.48128-98.24768 257.92512 257.92512 0 0 0-132.57728-35.15904 11.48416 11.48416 0 0 1-11.57632-11.33568 11.37664 11.37664 0 0 1 11.14112-11.60704h0.08192A280.4736 280.4736 0 0 1 645.632 121.344a283.8528 283.8528 0 0 1 105.00096 106.94144 11.4688 11.4688 0 0 1-4.36224 15.58528z m-476.672 254.0032a11.32544 11.32544 0 0 1 15.5904 3.69152l0.08704 0.14336c22.41024 36.80768 54.02624 67.7888 91.40736 89.55904s79.76448 33.89952 122.58816 35.08224a11.48928 11.48928 0 0 1 11.13088 11.78112 11.36128 11.36128 0 0 1-11.5712 11.15136h-0.08192c-46.60736-1.28-92.73856-14.47936-133.41184-38.1696a284.22656 284.22656 0 0 1-99.47648-97.47968 11.4688 11.4688 0 0 1 3.7376-15.75936z m665.41056-126.46912a11.50464 11.50464 0 0 1-11.63776-11.29472c-2.92864-149.1712-81.32096-282.85952-209.70496-357.64224-128.384-74.77248-282.34752-76.41088-411.86816-4.38784a11.40224 11.40224 0 0 1-15.5136-4.51072 11.49952 11.49952 0 0 1 4.41344-15.59552 439.9872 439.9872 0 0 1 213.98528-55.31648c77.0048 0.11776 153.20064 20.85888 220.3392 59.97056s123.0592 95.28832 161.65376 162.5088a449.8688 449.8688 0 0 1 59.4944 214.60992 11.38176 11.38176 0 0 1-11.10016 11.65312l-0.06144 0.00512z m-859.04384-4.56704a11.53024 11.53024 0 0 1 11.78112 11.14624c4.84864 146.80576 83.18464 278.38976 209.57184 352 126.37184 73.61024 278.50752 76.25728 406.95808 7.08608a11.39712 11.39712 0 0 1 15.42144 4.66432l0.03072 0.05632a11.4944 11.4944 0 0 1-4.62848 15.52896A440.08448 440.08448 0 0 1 503.3472 809.78432c-75.96544-0.62976-151.13216-21.36064-217.38496-59.94496A444.85632 444.85632 0 0 1 125.7984 589.87008a450.11968 450.11968 0 0 1-60.83584-211.23072 11.3664 11.3664 0 0 1 10.91584-11.79648l0.08704-0.00512z m205.568 301.28128c0.4352-2.12992 2.048-3.81952 4.15744-4.36224l23.37792-5.92896 8.32-22.75328a5.66784 5.66784 0 0 1 10.15808-1.05984l12.928 20.5568 24.1152 1.01376a5.7344 5.7344 0 0 1 4.992 3.41504 5.73952 5.73952 0 0 1-0.8192 5.9904l-15.36512 18.64704 6.58944 23.39328a5.76 5.76 0 0 1-1.66912 5.80608 5.6832 5.6832 0 0 1-5.92896 1.05984l-22.42048-9.04704-20.0448 13.45024a5.67296 5.67296 0 0 1-6.01088 0.18944 5.7856 5.7856 0 0 1-2.85184-5.35552l1.51552-24.22784-18.97472-15.07328a5.77024 5.77024 0 0 1-2.06848-5.71392zM172.90752 558.35648c0.44544-2.14016 2.048-3.83488 4.16256-4.36224l23.37792-5.92896 8.30976-22.76352a5.67808 5.67808 0 0 1 10.16832-1.0496l12.91776 20.5568 24.11008 1.01376a5.74976 5.74976 0 1 1 4.18304 9.41056l-15.37536 18.64704 6.58944 23.39328a5.74976 5.74976 0 0 1-1.65888 5.80608 5.6832 5.6832 0 0 1-5.92896 1.05984l-22.4256-9.04704-20.03968 13.44a5.66784 5.66784 0 0 1-6.02112 0.18944 5.7856 5.7856 0 0 1-2.85184-5.34528l1.52576-24.22784-18.98496-15.08352a5.79584 5.79584 0 0 1-2.05824-5.7088z m342.83008 138.0096a5.77536 5.77536 0 0 1 1.55136 8.64768l-15.3856 18.64704 6.59968 23.38304a5.74976 5.74976 0 0 1-1.66912 5.81632 5.64736 5.64736 0 0 1-5.91872 1.04448l-22.4256-9.0368-20.03968 13.44a5.66784 5.66784 0 0 1-6.02112 0.18944c-1.88416-1.10592-2.98496-3.1744-2.85184-5.35552l1.52576-24.22784-18.98496-15.07328a5.76512 5.76512 0 0 1-2.048-5.7088c0.4352-2.12992 2.05312-3.81952 4.16256-4.352l23.36768-5.9392 8.30976-22.75328a5.6832 5.6832 0 0 1 10.17856-1.04448l12.91776 20.55168 24.1152 1.01376c0.9216 0.03072 1.82272 0.29184 2.61632 0.75776z m478.06464-109.22496l-54.50752 95.2576c-35.52256 62.06976-114.72896 83.27168-176.55808 47.25248L64.86528 323.18464c-61.81888-36.00896-83.21536-115.80416-47.6928-177.87392l54.51264-95.2576c35.52256-62.05952 114.72384-83.26144 176.55296-47.25248l697.86112 406.46144c61.80864 36.0192 83.23072 115.80416 47.70304 177.87904z m-59.07968-158.01856l-697.86112-406.4768c-50.92864-29.66016-116.16256-12.20096-145.41312 38.93248L36.93568 156.83584c-29.25568 51.1232-11.62752 116.84352 39.296 146.50368l697.856 406.46656c50.92864 29.66528 116.16256 12.20096 145.42336-38.92224l54.51264-95.2576c29.2608-51.12832 11.63776-116.85376-39.30112-146.50368z m-209.63328-357.19168a5.68832 5.68832 0 0 1-4.16256 4.352l-23.37792 5.9392-8.30976 22.75328a5.69344 5.69344 0 0 1-4.74112 3.72224 5.77024 5.77024 0 0 1-5.4272-2.65728l-12.91776-20.56192-24.1152-1.01376a5.77024 5.77024 0 0 1-4.17792-9.41056l15.38048-18.64704-6.58944-23.39328a5.6832 5.6832 0 1 1 7.58784-6.8608l22.43072 9.05216 20.03968-13.45024c1.80224-1.20832 4.14208-1.28 6.02112-0.18944 1.87904 1.10592 2.97984 3.1744 2.85184 5.35552l-1.53088 24.22784 18.97984 15.08352c1.71008 1.35168 2.5088 3.5584 2.05824 5.69856z m-235.77088-36.8896l15.37536-18.64704-6.58944-23.38304c-0.5888-2.10432 0.0512-4.36224 1.66912-5.82144 1.6128-1.45408 3.89632-1.85856 5.91872-1.04448l22.43584 9.0368 20.03968-13.44a5.632 5.632 0 0 1 6.01088-0.18432 5.7856 5.7856 0 0 1 2.85184 5.35552l-1.51552 24.22784 18.9696 15.07328a5.77024 5.77024 0 0 1-2.0992 10.06592l-23.37792 5.92896-8.29952 22.7584a5.71392 5.71392 0 0 1-4.75136 3.712 5.74976 5.74976 0 0 1-5.41696-2.65728l-12.928-20.56704-24.1152-0.9984a5.79072 5.79072 0 0 1-4.99712-3.40992c-0.8704-1.9968-0.55808-4.31616 0.8192-6.00576z m344.38656 146.64704a5.69344 5.69344 0 0 1-4.16256 4.36224l-23.36256 5.9392-8.32 22.74816a5.69344 5.69344 0 0 1-4.74112 3.72224 5.7344 5.7344 0 0 1-5.41696-2.65216l-12.92288-20.56704-24.12032-1.00352a5.76512 5.76512 0 0 1-4.17792-9.4208l15.38048-18.64192-6.5792-23.3984c-0.59904-2.08896 0.04608-4.34176 1.65888-5.80608 1.60768-1.4592 3.91168-1.8688 5.91872-1.05472l22.43072 9.04704 20.04992-13.45024c1.80224-1.2032 4.13184-1.28 6.01088-0.18432a5.7856 5.7856 0 0 1 2.85184 5.3504l-1.52064 24.22784 18.9696 15.0784c1.71008 1.36704 2.49856 3.56352 2.05312 5.70368zM219.46368 277.56544c1.5872-0.78336 2.77504-1.6128 3.5584-2.4832 0.78848-0.8704 1.38752-1.65888 1.79712-2.37056 1.06496-1.8432 1.28512-3.70176 0.6656-5.57056-0.61952-1.87904-1.85856-3.34336-3.70176-4.40832-1.69984-0.97792-3.92192-1.408-6.64064-1.28l-46.50496 11.74016a23.84896 23.84896 0 0 0-2.45248 2.2784 12.2624 12.2624 0 0 0-1.44384 2.00192c-1.14688 1.99168-1.3568 3.90144-0.61952 5.74464 0.73216 1.83808 2.08896 3.33312 4.08064 4.48512 1.70496 0.97792 3.28704 1.51552 4.75136 1.60256l46.51008-11.74016zM431.616 199.1424l-80.45056-46.44864c-7.95136-4.58752-17.09568-7.59808-27.42784-9.03168-3.3536-0.41984-7.66976-0.64-12.94848-0.6656-5.2224-1.12128-11.64288-0.48128-19.28192 1.92512-9.94304 3.14368-16.21504 4.82304-18.79552 5.03808-1.16736-7.48544-3.24608-17.4848-6.24128-29.99296-0.48128-1.792-0.96256-4.05504-1.46432-6.80448a11.12064 11.12064 0 0 0-3.9424-3.97824c-2.12992-1.2288-4.25984-1.5616-6.37952-0.98816-2.13504 0.56832-3.85024 1.99168-5.16096 4.25984-0.65536 1.14176-1.0496 2.14016-1.17248 3.01568 0.26624 4.12672 1.47968 11.35616 3.65056 21.6832 3.44576 15.98976 3.4816 28.2112 0.11264 36.67456l-23.59296 40.86272c-1.2288 2.12992-2.93888 3.12832-5.13536 2.9952-0.73216-0.0512-1.70496-0.32256-2.92352-0.83456l-17.87904-10.32704c-1.88416-0.3328-3.81952 0.06656-5.79072 1.19296a11.99104 11.99104 0 0 0-4.56704 4.45952c-2.21696 3.82976-1.71008 7.05024 1.5104 9.67168l31.9232 18.43712a15.68256 15.68256 0 0 0 7.81312-1.73568c0.83456-0.46592 1.82784-1.20832 2.9952-2.24256l32.44544-56.192 1.86368-9.13408 22.89664-7.21408c3.59936 13.42976 4.26496 28.00128 2.00192 43.71968-0.75264 5.23776-2.24768 11.75552-4.47488 19.54816l-24.26368-14.00832c-4.28544 0.54784-7.21408 2.176-8.77056 4.86912-1.31072 2.26816-1.59232 5.03808-0.82944 8.32 0.11264 0.44544 0.36352 1.15712 0.74752 2.14016l25.53856 14.74048-21.38112 37.03296-17.87904-10.32192c-1.5616-0.90624-3.28704-0.86528-5.18656 0.12288a10.7776 10.7776 0 0 0-4.43392 4.2496 9.1392 9.1392 0 0 0-1.25952 5.376c0.14336 1.87392 1.07008 3.30752 2.76992 4.29568l17.87904 10.32192-22.85568 39.58784c0.54272 4.29056 2.17088 7.20896 4.864 8.77056 2.26816 1.31072 5.0432 1.5872 8.32 0.82944 0.44544-0.12288 1.16224-0.36864 2.13504-0.75264l22.8608-39.58272 31.9232 18.432-21.38624 37.03296c-0.77824 2.00704-0.81408 3.78368-0.1024 5.32992 0.71168 1.55136 1.9968 2.85696 3.84 3.92192 4.39296 2.53952 8.25856 2.4064 11.58656-0.39936l21.38112-37.03296 22.9888 13.27104c1.69984 0.98304 3.35872 1.13664 4.98176 0.46592 1.6128-0.67584 3.00544-2.00704 4.15232-3.98848s1.68448-3.98848 1.62304-6.016c-0.06656-2.0224-0.9472-3.52256-2.64704-4.5056l-22.9888-13.27104 22.8608-39.58272 28.09344 16.22016c3.87072 1.47456 6.8352 0.44032 8.87808-3.0976 2.29376-3.97824 2.03264-7.62368-0.768-10.95168l-28.09344-16.22016 30.96576-53.632c0.3328-1.8944 0.11776-3.8144-0.64-5.77024a16.7424 16.7424 0 0 0-1.52064-2.28864l-7.65952-4.42368a10.496 10.496 0 0 0-5.76 0.64512 15.9232 15.9232 0 0 0-2.29888 1.51552l-30.96576 53.632-31.9232-18.432c5.82144-14.99136 8.19712-31.88224 7.12192-50.66752-0.3584-6.26176-1.4592-14.1824-3.30752-23.76192 4.67456-0.89088 10.00448-0.36864 15.97952 1.57184 5.97504 1.93536 11.72992 3.84 17.27488 5.7088l80.45056 46.44864c1.69984 0.98304 3.35872 1.14176 4.98176 0.47104 1.6128-0.67072 3.00544-2.00704 4.15232-3.98848 1.14688-1.99168 1.6896-3.98848 1.62304-6.02112-0.05632-2.0224-0.93696-3.52256-2.6368-4.50048z m-99.26144 68.68992l-22.85568 39.58272-31.9232-18.432 22.85568-39.58784 31.9232 18.43712zM409.2928 431.44192c1.42848-10.3424 2.21184-19.72736 2.35008-28.16 0.16896-10.11712-0.6912-25.18016-2.57024-45.18912-0.35328-2.66752-1.59744-4.608-3.72736-5.84192-2.12992-1.22368-4.48512-1.49504-7.05536-0.80384-2.57536 0.6912-4.46976 2.0992-5.69856 4.22912-0.98304 1.69984-1.29024 3.69664-0.91136 6.00064 1.19296 12.98432 1.72032 26.81856 1.58208 41.49248a385.024 385.024 0 0 1-0.56832 18.68288l-0.93696 4.57216c0.82944 4.4544 2.94912 7.66464 6.35392 9.63072 2.12992 1.2288 4.18304 1.51552 6.1696 0.86528 1.99168-0.65536 3.6608-2.47808 5.01248-5.4784z m31.11424-45.03552c2.00192-1.49504 3.49184-3.09248 4.46976-4.80256 1.9712-3.39968 2.42688-9.76384 1.37216-19.07712-0.6912-5.69344-0.80896-9.73824-0.37376-12.1344l58.98752-102.15424c0.3328-1.88928-0.06656-3.82464-1.18784-5.80096a12.04736 12.04736 0 0 0-4.45952-4.56192c-3.82976-2.21184-7.06048-1.71008-9.67168 1.5104l-47.19104 81.73056-3.04128-15.38048c0.49664-2.176 0.30208-4.13184-0.58368-5.86752-0.88576-1.74592-2.32448-3.18976-4.31104-4.33664-2.41664-1.39264-4.8384-1.94048-7.27552-1.64352-2.44224 0.29184-4.31616 1.57696-5.632 3.84512-0.56832 0.98816-0.91648 1.74592-1.01376 2.24768 2.19136 14.88896 4.21888 31.19104 6.0928 48.92672 0.59904 5.83168 1.3312 13.25056 2.18624 22.26176 0.46592 4.4288 0.84992 7.20384 1.152 8.32512 0.83968 3.13344 2.24768 5.27872 4.23424 6.4256 1.69984 0.98304 3.77856 1.14176 6.2464 0.4864z m99.7888 98.47808L441.86624 428.1088c-3.03104 0.32768-5.20192 1.30048-6.50752 2.91328a24.59648 24.59648 0 0 0-3.2256 5.08928l0.88064 7.3216 98.3296 56.77568c4.29056-0.55296 7.21408-2.176 8.77056-4.86912 1.31072-2.27328 1.59232-5.0432 0.82944-8.32a22.25152 22.25152 0 0 0-0.74752-2.13504z m36.21888-42.0864l-24.26368-14.00832 56.77568-98.3296c2.45248-9.17504 1.13152-17.69472-3.968-25.56416-1.76128-2.52416-4.59264-5.48352-8.4992-8.87296l-12.76928-7.3728-21.36576-7.22944a33.6896 33.6896 0 0 0-12.97408-2.0992c-5.59104 0.17408-9.24672 1.76128-10.96704 4.74112-1.06496 1.8432-1.20832 4.21376-0.43008 7.13216a24.41216 24.41216 0 0 0 5.67808 4.40832c3.11808 1.80736 7.97184 3.23072 14.55616 4.29056 6.57408 1.05984 11.20768 2.36032 13.91104 3.9168 0.91136 0.72192 1.58208 1.19808 2.00704 1.44384l7.66464 4.42368c4.25472 2.4576 6.67648 6.12352 7.26528 11.00288 0.19456 1.62304 0.06656 3.81952-0.39424 6.58432L535.552 419.21024l-72.78592-42.02496-3.29216-0.19456c-2.79552 1.22368-4.80256 2.90304-6.03136 5.03296s-1.55648 4.49024-0.9728 7.09632c0.1024 0.80896 0.57856 1.94048 1.44384 3.38944l113.65376 65.62304c1.83808 1.06496 3.69152 1.13664 5.55008 0.22016 1.84832-0.91648 3.38944-2.43712 4.61824-4.56704 1.31072-2.27328 1.90976-4.38272 1.81248-6.33344-0.1024-1.96096-1.14688-3.5072-3.13344-4.65408zM821.6832 509.4912c1.56672-4.0192 1.57184-7.79776 0.02048-11.33568-0.52224-1.05984-1.54624-2.41152-3.06176-4.03968l-68.96128-39.81312 30.22848-52.35712c0.3328-1.88928-0.06144-3.81952-1.18784-5.79584s-2.62144-3.50208-4.45952-4.56704c-3.82976-2.21184-7.06048-1.70496-9.67168 1.5104l-30.22848 52.35712-68.96128-39.81312c-3.44576-1.23904-7.13728-0.91136-11.06944 0.98816-1.28 0.57856-2.95936 1.69472-5.03808 3.328l-51.61472 89.39008c-1.0752 4.48512-0.73216 8.46848 1.04448 11.9552 0.6656 1.14176 1.75616 2.52416 3.2768 4.16256l68.95616 39.81312-14.75072 25.53856c-0.77312 2.00704-0.80896 3.78368-0.09728 5.33504 0.71168 1.54624 1.9968 2.85184 3.83488 3.9168 4.39808 2.53952 8.26368 2.40128 11.59168-0.40448l14.7456-25.53856 70.23616 40.5504c3.69152 0.80384 7.04 0.09216 10.04032-2.1504 0.9984-0.74752 2.17088-1.96608 3.52256-3.64032l51.60448-89.39008z m-96.90624-47.4368l-44.2368 76.61568-57.46688-33.1776a10.53696 10.53696 0 0 1-2.31936-5.31456c-0.04608-0.59392 0.01536-1.50528 0.15872-2.74432l38.33856-66.4064c1.46944-1.23392 3.24096-2.01216 5.31456-2.32448 0.59392-0.04096 1.50528 0.01536 2.7392 0.16384l57.472 33.18784z m73.66656 49.34656l-38.33856 66.4064c-1.22368 2.12992-2.93376 3.12832-5.13024 2.9952-0.73216-0.04608-1.71008-0.32256-2.9184-0.83968l-56.192-32.44032 44.2368-76.61568 56.192 32.44032c2.12992 1.2288 3.1232 2.93888 2.9952 5.13024-0.04608 0.72704-0.32768 1.70496-0.8448 2.92352z"  horiz-adv-x="1056" />

    
    <glyph glyph-name="yiwancheng" unicode="&#59237;" d="M769.024 261.632c-5.632 3.072-12.288 1.024-15.36-4.608-22.528-40.96-56.32-74.752-96.256-98.304-40.448-23.552-86.016-35.84-132.608-35.328-6.144 0-11.264-5.12-11.776-11.264 0-6.144 4.608-11.264 11.264-11.776 50.688-0.512 100.352 12.8 144.384 38.4 44.032 25.6 80.384 62.464 104.96 107.008 2.56 5.632 0.512 12.8-4.608 15.872zM292.352 515.584c5.12-3.072 12.288-1.536 15.36 3.584C330.24 556.544 361.984 587.264 399.36 609.28s79.872 33.792 122.368 35.328c6.144 0 11.264 5.632 11.264 11.776 0 6.144-5.12 11.264-11.776 11.264-46.592-1.536-92.672-14.336-133.632-38.4-40.96-23.552-74.752-57.344-99.328-97.28-3.072-6.144-1.536-12.8 4.096-16.384zM957.44 389.12c-6.144 0-11.776-5.12-11.776-11.264-3.072-148.992-81.408-282.624-209.92-357.888-128.512-74.752-282.112-76.288-411.648-4.608-5.632 3.072-12.288 1.024-15.36-4.608-3.072-5.632-1.024-12.288 4.608-15.36C378.88-40.96 452.608-59.904 527.36-59.904c76.8 0 153.088 20.992 220.16 59.904 67.072 38.912 122.88 95.232 161.792 162.304 37.376 65.536 57.856 139.264 59.392 214.528 0 7.168-4.608 12.288-11.264 12.288z m-859.136-4.608c6.144 0 11.776 4.608 11.776 11.264 5.12 146.944 83.456 278.528 209.92 351.744 126.464 73.728 278.528 76.288 407.04 7.168 5.632-3.072 12.288-1.024 15.36 4.608 3.072 5.632 1.024 12.288-4.608 15.36-65.024 34.816-137.728 53.248-211.968 52.224-75.776-0.512-151.04-21.504-217.6-59.904C242.176 729.088 186.88 673.792 148.48 607.744 111.104 543.232 90.112 471.04 87.552 396.288c-0.512-6.144 4.608-11.264 10.752-11.776zM304.128 686.08c0.512-2.048 2.048-3.584 4.096-4.608l23.552-6.144 8.192-22.528c1.024-3.072 4.096-4.608 7.168-3.584 1.024 0.512 2.048 1.024 3.072 2.56l12.8 20.48 24.064 1.024c2.048 0 4.096 1.536 5.12 3.584 1.024 2.048 0.512 4.096-1.024 6.144l-15.36 18.432 6.656 23.552c0.512 2.048 0 4.096-1.536 5.632-1.536 1.536-4.096 2.048-6.144 1.024l-22.528-9.216-19.968 13.312c-2.048 1.024-4.096 1.536-6.144 0-2.048-1.024-3.072-3.072-3.072-5.12l1.536-24.064-18.944-14.848c-1.024-1.536-2.048-3.584-1.536-5.632zM195.584 576c0.512-2.048 2.048-3.584 4.096-4.608l23.552-6.144 8.192-22.528c1.024-3.072 4.096-4.608 7.168-3.584 1.024 0.512 2.048 1.024 3.072 2.56l12.8 20.48 24.064 1.024c2.048-2.56 5.632-2.56 8.192-0.512s2.56 5.632 0.512 8.192c-1.024 1.536-3.072 2.048-4.608 2.048l-15.36 18.432 6.656 23.552c0.512 2.048 0 4.096-1.536 5.632-1.536 1.536-4.096 2.048-6.144 1.024l-22.528-9.216-19.968 13.312c-2.048 1.024-4.096 1.536-6.144 0-2.048-1.024-3.072-3.072-3.072-5.12l1.536-24.064-18.944-14.848c-1.536-1.024-2.048-3.584-1.536-5.632z m342.528 138.24c2.56 1.536 3.584 5.12 2.048 7.68 0 0.512-0.512 0.512-0.512 0.512l-15.36 18.432 6.656 23.552c0.512 2.048 0 4.096-1.536 5.632-1.536 1.536-4.096 2.048-6.144 1.024L501.248 762.88 481.28 776.192c-2.048 1.024-4.096 1.536-6.144 0-2.048-1.024-3.072-3.072-3.072-5.12l1.536-24.064-18.944-14.848c-1.536-1.536-2.56-3.584-2.048-5.632 0.512-2.048 2.048-3.584 4.096-4.608l23.552-6.144 8.192-22.528c1.024-3.072 4.096-4.608 7.168-3.584 1.024 0.512 2.048 1.024 3.072 2.56l12.8 20.48 24.064 1.024c1.024-0.512 2.048 0 2.56 0.512z m478.208-109.568l-54.272 95.232c-35.328 61.952-114.688 83.456-176.64 47.104L87.552 340.992C25.6 305.152 4.096 225.28 39.936 163.328l54.272-95.232c35.328-61.952 114.688-83.456 176.64-47.104l697.856 406.528c61.952 35.328 82.944 115.2 47.616 177.152zM957.44 446.976L259.584 40.448c-50.688-29.696-116.224-12.288-145.408 38.912l-54.272 95.232c-29.184 51.2-11.776 116.736 39.424 146.432l697.856 406.528c50.688 29.696 116.224 12.288 145.408-38.912l54.272-95.232c29.184-51.2 11.264-116.736-39.424-146.432z m-209.92-357.376c-0.512 2.048-2.048 3.584-4.096 4.096l-23.552 6.144-8.192 23.04c-0.512 2.048-2.56 3.584-4.608 3.584s-4.096-1.024-5.632-2.56l-12.8-20.48-24.064-1.024c-3.072 0-5.632-3.072-5.632-6.144 0-1.024 0.512-2.56 1.536-3.584l15.36-18.432-6.656-23.552c-3.072-1.024-4.096-4.608-3.072-7.168 1.024-3.072 4.608-4.096 7.168-3.072 1.536 0.512 3.072 2.048 3.072 3.584l22.528 9.216 19.968-13.312c2.048-1.024 4.096-1.536 6.144 0 2.048 1.024 3.072 3.072 3.072 5.12l-1.536 24.064 18.944 14.848c1.536 1.536 2.56 3.584 2.048 5.632z m-235.52-36.864l15.36-18.432-6.656-23.552c-0.512-2.048 0-4.608 1.536-5.632 1.536-1.536 4.096-2.048 6.144-1.024l22.528 9.216 19.968-13.312c2.048-1.024 4.096-1.536 6.144 0 2.048 1.024 3.072 3.072 3.072 5.12l-1.536 24.064 18.944 14.848c2.56 2.048 3.072 5.632 1.024 8.192-0.512 1.024-2.048 1.536-3.072 2.048l-23.552 6.144-8.192 22.528c-0.512 2.048-2.56 3.584-4.608 3.584s-4.096-1.024-5.632-2.56l-12.8-20.48-24.064-1.024c-2.048 0-4.096-1.536-5.12-3.584-1.536-2.048-1.024-4.608 0.512-6.144z m344.064 146.944c-0.512 2.048-2.048 3.584-4.096 4.608l-23.552 6.144-8.192 22.528c-0.512 2.048-2.56 3.584-4.608 3.584s-4.096-1.024-5.632-2.56l-12.8-20.48-24.064-1.024c-3.072 0-5.632-3.072-5.632-6.144 0-1.024 0.512-2.56 1.536-3.584l15.36-18.432-6.656-23.552c-0.512-2.048 0-4.096 1.536-5.632 1.536-1.536 4.096-2.048 6.144-1.024l22.528 9.216 19.968-13.312c2.048-1.024 4.096-1.536 6.144 0 2.048 1.024 3.072 3.072 3.072 5.12l-1.536 24.064 18.944 14.848c1.536 1.024 2.048 3.072 1.536 5.632zM434.176 248.32c4.608-8.192 4.608-15.872 0.512-24.064-3.072-6.144-9.216-12.288-17.408-17.92l-102.4-58.88c-12.288-3.584-19.456-5.632-22.016-6.144-8.704-1.024-15.36 2.048-19.456 9.728l-67.072 116.224c-0.512 3.584 1.024 6.144 4.096 8.192 3.584 2.048 7.168 2.048 9.728 0l18.432-31.744 114.688 66.56c1.024 2.56 2.048 5.12 1.536 7.68v2.048l-25.6 44.544c-1.536 1.024-3.584 2.048-5.12 2.56h-2.56L194.56 291.84c-4.096-0.512-6.656 0-7.68 2.048-1.536 2.048-2.56 3.584-3.072 5.12-1.024 2.048-1.024 4.096 0 6.144 0.512 0.512 1.024 1.536 2.048 2.048L322.56 386.048c4.096 1.536 7.68 1.536 11.776-0.512 1.024-0.512 2.56-2.048 4.608-3.584l38.4-66.56c1.536-4.096 1.536-7.68-0.512-11.776-0.512-1.024-2.048-2.56-3.584-4.608l-123.904-71.68 36.352-62.464c4.608-3.584 10.24-4.608 15.872-4.096 2.048 0.512 4.096 1.024 7.168 2.048L408.576 220.16c6.144 3.584 9.216 9.216 9.216 16.384 0 2.56-1.024 5.632-2.048 9.728l-11.776 20.48c-1.024 2.048-1.024 3.584 0 5.632 1.024 2.048 2.56 3.584 4.608 4.608 2.048 1.536 4.608 2.048 6.144 2.048 2.048 0 3.584-1.024 4.608-3.072l14.848-27.648z m153.6 240.128c2.048-6.144 3.072-11.264 3.584-14.336 1.024-6.144-1.024-10.24-5.632-12.288-2.048-0.512-4.096 0-5.632 1.024-1.536 1.024-2.56 2.048-3.584 3.584-1.024 1.536-1.536 2.56-2.048 4.096-0.512 1.024-0.512 2.048-1.024 3.072-1.024 3.072-2.048 6.656-3.584 9.216-1.536 2.56-3.072 4.096-4.608 5.12-1.536 1.024-3.584 0.512-6.144-0.512L429.568 412.16c-2.048-1.024-3.072-3.072-3.072-5.12 0-0.512 0.512-1.536 1.024-3.072l11.776-20.48c-0.512-4.096-2.048-7.168-5.12-8.704-2.048-1.536-5.12-1.536-8.192-1.024-0.512 0-1.536 0.512-2.048 0.512l-17.92 30.72c-1.536 4.608-1.536 8.192 0.512 12.288 0.512 1.024 2.048 2.56 3.584 4.608l66.56 38.4-7.168 12.8c-0.512 2.048 0 4.096 0.512 5.632 0.512 0.512 0.512 1.536 1.536 2.048l6.144 3.584c2.048 1.024 4.096 1.024 6.144 0 0.512-0.512 1.536-1.024 2.048-2.048l7.168-12.8 66.56 38.4c4.608 2.56 9.216 3.072 13.824 1.024 4.608-2.048 8.192-5.632 10.752-10.24 2.048-3.584 3.072-6.656 3.584-10.24z m65.024-112.64c1.536-2.048 2.56-3.072 3.072-4.608 4.608-7.68 5.632-15.872 4.096-24.576-2.048-8.704-6.656-15.36-14.848-19.968l-30.72-17.92c-6.656-4.096-13.824-4.096-20.48-1.024-2.048 1.024-5.12 3.072-8.192 6.144l-37.376 65.024-38.4-22.016 8.192-13.824c6.656-14.336 9.216-29.696 7.68-45.056-1.536-15.36-7.68-29.184-17.408-40.96-4.096-4.608-8.192-9.216-12.8-14.336-2.048-1.536-5.12-1.536-7.68-1.024-2.048 1.024-3.072 2.56-4.096 3.584-2.048 3.072-1.536 6.656 1.024 11.264 0.512 1.536 3.072 4.608 7.168 9.728 9.216 8.704 14.336 19.968 16.384 33.792 2.048 13.824-0.512 26.624-6.656 37.888l-6.144 10.24-43.52-25.088c-2.048-1.024-4.096-1.024-6.144 0-0.512 0.512-1.536 1.024-2.048 2.048-2.56 3.072-3.584 6.144-2.56 9.216 0 1.024 1.024 2.56 2.048 4.096l168.448 97.28c2.048 0.512 3.584 0 5.632-1.024 2.048-1.024 3.584-2.56 4.608-4.608 2.048-3.584 1.536-7.168-1.536-9.728L563.712 389.12l36.352-62.464 6.656-3.072 26.624 15.36c4.096 3.584 7.168 7.168 8.192 11.264 1.536 4.608 1.024 9.216-2.048 13.312l-8.704 15.36c-0.512 2.048 0 4.096 1.024 5.632 1.024 2.048 2.56 3.584 4.096 4.608 2.048 1.024 4.096 1.536 6.144 1.536 2.048-0.512 3.584-1.536 5.12-4.096l5.632-10.752z m-83.456 67.584L460.8 380.928c-4.096-0.512-6.656 0-7.68 2.048-1.024 1.536-2.048 3.072-3.072 5.12-1.024 2.048-1.024 4.096 0 6.144 0.512 0.512 1.024 1.536 2.048 2.048l108.544 62.464c4.096-0.512 7.168-2.048 8.704-5.12 1.536-2.048 1.536-5.12 1.024-8.192-0.512-0.512-0.512-1.024-1.024-2.048z m281.6 80.896c1.024-1.024 2.56-3.072 4.608-6.144s2.56-4.608 3.072-4.608c2.048-3.584 4.096-7.68 6.656-12.8 5.632-11.776 8.704-18.944 10.752-22.016 0.512-4.096 1.024-7.168 1.536-9.216 0-3.584-1.024-6.656-3.072-8.704l-6.144-3.584c-13.824 0.512-27.648 4.096-41.984 9.728-4.608 2.048-10.24 5.12-16.896 9.216-3.584-13.312-8.192-27.136-14.848-40.96-2.56-6.144-5.632-12.288-8.704-18.432-1.024-3.584-2.56-6.656-5.12-8.704-1.024-1.024-2.048-2.048-3.584-3.072-4.096-2.56-7.68-1.024-10.752 3.584-1.024 2.048-1.536 4.096-2.048 6.144 7.168 12.8 12.288 24.064 16.384 33.792 5.12 13.824 7.68 27.136 8.192 39.936-12.288 8.704-24.576 19.456-37.376 32.256-8.704 8.192-17.408 17.408-26.624 28.16l-10.24 11.776-57.344-33.28c-1.024-1.536-2.048-3.584-2.56-5.12v-2.56l8.704-15.36 47.104 27.136c1.536 1.024 3.072 1.024 4.608 0.512 1.536-0.512 2.56-1.536 3.584-3.072l22.528-39.424 5.12-8.704c7.168-12.288 11.264-22.016 12.8-29.184 2.56-11.776 0-22.016-7.168-30.208l-8.704-5.12-16.384-4.096c-2.048-1.024-4.096-1.024-5.632 0-1.536 0.512-2.56 2.048-4.096 4.096-1.024 1.536-1.536 3.072-2.048 5.12-0.512 2.048-1.024 3.072-1.024 4.096 2.048 2.048 4.096 4.096 5.632 5.12 2.048 1.024 3.584 2.048 4.608 2.56 3.072 1.024 5.632 2.048 8.704 3.584 2.56 1.536 4.608 3.072 5.632 5.12 0.512 4.608 0 8.704-1.024 13.312-1.536 4.608-3.072 8.704-5.632 12.8l-4.608 8.192c-1.024 2.048-2.048 3.584-3.072 5.632l-15.36 26.624-35.84-20.48 11.264-18.944c7.168-12.288 12.8-25.6 17.92-39.936 3.584-10.752 6.656-22.016 9.216-33.28 2.048-9.216 3.072-13.824 2.56-13.824 0.512-3.072 0.512-5.632-0.512-7.68-1.024-2.048-2.56-4.096-4.608-5.12-2.048-1.024-4.096-1.536-6.656-1.024-2.048 0.512-4.096 2.048-5.12 4.096-0.512 1.024-1.024 1.536-1.024 2.56-2.048 13.312-5.632 27.136-10.24 41.472-3.584 10.24-7.168 19.968-11.776 29.696l-5.632 11.776-37.376 65.024c-1.536 4.096-1.536 7.68 0.512 11.776 0.512 1.024 2.048 2.56 3.584 4.608l67.584 38.912-15.872 18.432c-2.56 4.608-2.56 8.704 0.512 12.8 1.024 1.024 2.56 2.56 5.12 4.096 5.12 0 10.24-4.096 15.36-11.776 5.12-7.68 8.704-12.288 11.264-13.824l38.4 22.016-26.112-1.536c-2.56-1.024-4.608-1.024-6.656 0s-3.584 2.56-5.12 5.12c-1.024 2.048-2.048 4.608-2.048 7.168 1.024 2.048 3.072 3.584 5.12 4.608 3.072 1.536 7.168 2.56 12.8 2.048 8.192-0.512 12.8-0.512 14.848 0 1.536 0.512 3.584 0 5.632-1.024 2.048-1.024 3.584-2.56 4.608-4.096 2.56-4.096 2.048-8.192-1.024-11.776l20.48 11.776c2.048 1.024 4.096 1.536 6.656 0.512 0.512-0.512 1.536-1.024 2.56-2.048l3.584-6.144c1.024-2.048 1.024-4.096 0-6.144-0.512-0.512-1.024-1.536-2.048-2.048l-59.904-34.816c7.168-10.24 16.896-20.48 28.672-32.256 9.728-9.728 20.48-18.944 31.232-27.648-0.512 9.728-2.56 20.48-5.12 31.744-1.536 4.608-3.072 9.728-4.608 14.336-1.024 1.024-1.536 2.048-2.048 3.584-2.56 4.608-3.584 8.704-3.072 11.776 0 1.024 1.024 2.048 2.048 3.584l6.144 3.584c2.048 0.512 4.096 0 5.632-0.512 0.512-0.512 1.536-1.024 2.048-1.536 10.24-27.136 15.872-50.176 17.408-68.608v-11.264l17.92-10.752c5.12-2.048 9.216-3.584 11.776-4.096 5.12-1.536 8.704-1.536 11.264 0 1.024 0.512 1.536 1.024 2.048 1.536l-11.776 29.184c-2.048 3.584-1.024 6.656 3.584 9.216 2.56 0.512 4.608 1.536 6.656 1.024z"  horiz-adv-x="1056" />

    
    <glyph glyph-name="client" unicode="&#59114;" d="M857.6-55.467h-640c-59.733 0-108.8 49.067-108.8 108.8v104.533c0 12.8 8.533 21.333 21.333 21.333s21.333-8.533 21.333-21.333v-104.533c0-36.267 29.867-66.133 66.133-66.133h640c36.267 0 66.133 21.333 66.133 44.8v66.133c0 12.8 8.533 21.333 21.333 21.333s21.333-8.533 21.333-21.333v-66.133c-2.133-46.933-49.067-87.467-108.8-87.467zM942.933 311.467c-12.8 0-21.333 8.533-21.333 21.333v381.867c0 36.267-29.867 66.133-66.133 66.133h-640c-36.267 0-66.133-29.867-66.133-66.133v-123.733c0-12.8-8.533-21.333-21.333-21.333s-21.333 8.533-21.333 21.333v123.733c0 59.733 49.067 108.8 108.8 108.8h640c59.733 0 108.8-49.067 108.8-108.8v-381.867c0-12.8-8.533-21.333-21.333-21.333zM194.133 518.4h-128c-10.667 0-21.333-10.667-21.333-21.333 0-12.8 10.667-21.333 21.333-21.333h128c12.8 0 21.333 8.533 21.333 21.333s-8.533 21.333-21.333 21.333zM198.4 398.933h-128c-10.667 0-21.333-8.533-21.333-21.333s10.667-21.333 21.333-21.333h128c12.8 0 21.333 8.533 21.333 21.333s-10.667 21.333-21.333 21.333zM198.4 279.467h-128c-10.667 0-21.333-8.533-21.333-21.333s10.667-21.333 21.333-21.333h128c12.8 0 21.333 8.533 21.333 21.333s-10.667 21.333-21.333 21.333zM537.6 349.867c-72.533 0-130.133 57.6-130.133 130.133s57.6 130.133 130.133 130.133 130.133-57.6 130.133-130.133-59.733-130.133-130.133-130.133zM537.6 567.467c-49.067 0-87.467-40.533-87.467-87.467s40.533-87.467 87.467-87.467 87.467 40.533 87.467 87.467-40.533 87.467-87.467 87.467zM324.267 157.867c-12.8 2.133-23.467 10.667-21.333 23.467 12.8 119.467 110.933 211.2 232.533 211.2 119.467 0 219.733-89.6 232.533-209.067 2.133-10.667-6.4-21.333-19.2-23.467-12.8-2.133-21.333 6.4-23.467 19.2-10.667 98.133-91.733 170.667-189.867 170.667-98.133 0-181.333-74.667-189.867-172.8 0-10.667-8.533-19.2-21.333-19.2zM915.2 226.133c0-17.673 14.327-32 32-32s32 14.327 32 32c0 17.673-14.327 32-32 32-17.673 0-32-14.327-32-32z"  horiz-adv-x="1024" />

    
    <glyph glyph-name="wode" unicode="&#58887;" d="M712 387.4c-51.2-46.8-119.1-75.6-194-75.6-76.1 0-145.2 29.8-196.7 78C202 357.4 128 246.39999999999998 128 114.10000000000002v-67.6c0-78.9 192-118.3 384-118.3s384 39.4 384 118.3v67.6c0 128.9-70.1 237.7-184 273.3zM512-23.799999999999955c-223.5 0-330.9 50.4-336 70.3v67.6c0 103.9 52.1 188.2 134.7 221.6 59.1-46.5 131.7-71.9 207.3-71.9 73.7 0 144.8 24.2 203.2 68.8C799 297.1 848 214.10000000000002 848 114.10000000000002v-67.5c-5.1-20-112.5-70.4-336-70.4zM518 359.79999999999995c132.5 0 240 107.4 240 240s-107.4 240-240 240c-132.5 0-240-107.4-240-240s107.5-240 240-240z m0 432c105.9 0 192-86.1 192-192s-86.1-192-192-192-192 86.1-192 192 86.2 192 192 192z"  horiz-adv-x="1024" />

    
    <glyph glyph-name="jieshu" unicode="&#58907;" d="M288.187733 201.07946700000002c-9.489067 0-18.978133 5.26336-23.722666 14.759253a451.584 451.584 0 0 0-23.197014 57.453227c-4.744533 13.707947 3.160747 28.4672 16.868694 33.211733s28.4672-3.160747 33.211733-16.868693c5.802667-16.868693 12.65664-34.269867 20.56192-50.080427 6.32832-13.182293 1.051307-28.992853-11.598507-35.321173-4.212053-2.102613-8.430933-3.15392-12.12416-3.15392zM641.911467-18.220372999999995a419.908267 419.908267 0 0 0-170.27072 35.846826c-51.664213 23.190187-98.051413 55.343787-137.058987 97.000107-10.01472 10.540373-9.489067 27.409067 1.051307 37.423787 10.540373 10.01472 27.409067 9.489067 37.423786-1.051307 34.269867-36.37248 74.328747-64.846507 119.66464-84.882773 46.91968-21.080747 96.99328-31.627947 148.657494-31.627947 98.57024 0 190.825813 38.48192 260.942506 108.066133 69.584213 69.584213 108.07296 162.358613 108.07296 260.942507 0 98.577067-38.488747 190.83264-108.07296 260.942507-69.577387 69.05856-162.36544 107.54048-260.410026 107.54048-98.577067 0-190.83264-38.48192-260.942507-108.066134-69.584213-69.584213-108.066133-162.36544-108.066133-260.942506 0-14.759253-11.598507-26.35776-26.35776-26.35776s-26.35776 11.605333-26.35776 26.35776c0 56.9344 11.072853 112.285013 33.211733 163.949226a419.341653 419.341653 0 0 0 90.146133 133.89824 419.341653 419.341653 0 0 0 133.89824 90.146134c52.189867 22.13888 107.014827 33.211733 163.949227 33.211733 56.927573 0 112.285013-11.072853 163.9424-33.211733 50.080427-21.087573 95.41632-51.657387 133.89824-90.146134s69.05856-83.817813 90.139307-133.89824c22.145707-52.189867 33.211733-107.008 33.211733-163.949226 0-56.9344-11.066027-112.278187-33.211733-163.949227-21.080747-50.080427-51.65056-95.41632-90.139307-133.891413s-83.817813-69.05856-133.89824-90.146134c-51.664213-22.13888-106.482347-33.211733-163.423573-33.204906zM813.513387 268.93653300000005a33.082027 33.082027 0 0 0-33.082027-33.082026H502.33344a33.082027 33.082027 0 0 0-33.0752 33.082026V547.034453a33.0752 33.0752 0 0 0 33.0752 33.0752h278.09792a33.082027 33.082027 0 0 0 33.082027-33.0752v-278.09792z"  horiz-adv-x="1280" />

    
    <glyph glyph-name="dingwei-dingwei" unicode="&#58900;" d="M513.799649 600.257762c-118.176919 0-214.158172-96.181215-214.158173-214.158172 0-118.176919 96.181215-214.158172 214.158173-214.158172 117.976958 0 214.158172 95.781293 214.158172 213.958211s-96.181215 214.358133-214.158172 214.358133z m0-367.328256c-84.383519 0-152.970123 68.586604-152.970124 152.970123s68.586604 152.970123 152.970124 152.970123 152.970123-68.586604 152.970123-152.970123-68.586604-152.970123-152.970123-152.970123zM991.306385 415.493849H913.9215c-7.198594 96.581136-48.190588 186.363601-117.377075 255.550088s-158.968951 110.178481-255.550088 117.377075V865.405975c0 16.796719-13.797305 30.594025-30.594025 30.594025s-30.594025-13.797305-30.594024-30.594025v-76.984963c-96.381176-7.198594-186.363601-48.190588-255.550088-117.377075S114.077719 512.274946 106.879125 415.493849H30.694005c-16.796719 0-30.594025-13.797305-30.594025-30.594025s13.797305-30.594025 30.594025-30.594024h76.18512c7.198594-96.581136 48.190588-186.363601 117.377075-255.550088s158.968951-110.178481 255.550088-117.377075v-78.784612c0-16.796719 13.797305-30.594025 30.594024-30.594025s30.594025 13.797305 30.594025 30.594025v78.784612c96.381176 7.198594 186.363601 48.190588 255.550088 117.377075s110.178481 158.968951 117.377075 255.550088h77.384885c16.796719 0 30.594025 13.797305 30.594025 30.594024 0 16.99668-13.797305 30.594025-30.594025 30.594025zM753.1529 142.147237c-64.787346-64.787346-151.170475-100.580355-242.752588-100.580356-91.782074 0-177.965241 35.793009-242.752587 100.580356-64.787346 64.787346-100.580355 151.170475-100.580355 242.752587s35.793009 177.965241 100.580355 242.752588c64.787346 64.787346 151.170475 100.580355 242.752587 100.580355 91.782074 0 177.965241-35.793009 242.752588-100.580355 64.787346-64.787346 100.580355-151.170475 100.580355-242.752588s-35.593048-177.965241-100.580355-242.752587z"  horiz-adv-x="1024" />

    
    <glyph glyph-name="wangluocuowu" unicode="&#58924;" d="M1011.13622 532c-12.6-16-36-16-50.4-3.6-478 419-882.2 17.8-900.2 0-7.2-7-16.2-10.6-25.2-10.6s-18 3.6-25.2 10.6c-12.6 12.4-14.4 35.4 0 49.8 3.6 5.4 469 467 999 3.6 14.6-12.4 16.4-35.6 2-49.8zM867.33622 429.2c12.4-9.6 15.2-25.4 10-38.8-18 4.4-36.8 6.8-56 6.8-8.4 0-16.6-0.4-24.6-1.2-324.6 261-581.8-9.8-592.2-22-7.2-8.8-18-12.4-27-12.4-7.2 0-16.2 3.6-23.4 8.8-14.4 12.4-14.4 35.4-1.8 49.8 3.6 3.6 328.8 348 715 9zM499.13622 365.2c51.4 2.2 101.6-12 149.4-42-16.8-17.4-30.6-37.4-41.6-59.2-34.4 20.8-69 31.2-104.4 30.2-89.8-1.8-156.4-79.8-156.4-79.8-12.6-16-35.8-17.8-50.4-5.4-16.2 12.4-18 33.6-5.4 49.8 3.8 5.2 86.6 101 208.8 106.4zM509.73622 175.2c18.8 0 37.6-7.6 50.8-20.8 13.4-13.2 21-31.6 21-50.2s-7.6-37-21-50.2c-13.4-13.2-32-20.8-50.8-20.8-18.8 0-37.6 7.6-50.8 20.8-13.4 13.2-21 31.6-21 50.2s7.6 37 21 50.2c13.4 13.2 32 20.8 50.8 20.8zM827.73622 335c-98 0-177.6-79.4-177.6-177.4s79.6-177.6 177.6-177.6 177.6 79.4 177.6 177.4-79.4 177.6-177.6 177.6z m90.8-220.2c7.4-7.4 2.6-24-10.8-37.4-13.2-13.2-30-18-37.4-10.8l-42.8 42.8-42.8-42.8c-7.4-7.4-24-2.6-37.4 10.8-13.2 13.2-18 30-10.8 37.4l42.8 42.8-42.8 42.8c-7.4 7.4-2.6 24 10.8 37.4 13.2 13.2 30 18 37.4 10.8l42.8-42.8 42.8 42.8c7.4 7.4 24 2.6 37.4-10.8 13.2-13.2 18-30 10.8-37.4l-42.8-42.8 42.8-42.8z"  horiz-adv-x="1024" />

    
    <glyph glyph-name="delete3" unicode="&#59241;" d="M983.8 583.3C958 644.3 921 699 874 746c-47 47-101.7 84-162.7 109.7C648.2 882.5 581.1 896 512 896S375.8 882.5 312.7 855.7C251.7 830 197 793 150 746c-47-47-84-101.7-109.7-162.7C13.5 520.2 0 453.1 0 384s13.5-136.2 40.3-199.3C66 123.7 103 69 150 22c47-47 101.8-83.9 162.7-109.7 63.1-26.7 130.2-40.3 199.3-40.3s136.2 13.5 199.3 40.3C772.3-62 827-25 874 22c47 47 83.9 101.8 109.7 162.7 26.7 63.1 40.3 130.2 40.3 199.3s-13.5 136.2-40.2 199.3zM692 348H332c-19.9 0-36 16.1-36 36s16.1 36 36 36h360c19.9 0 36-16.1 36-36s-16.1-36-36-36z"  horiz-adv-x="1024" />

    
    <glyph glyph-name="jihuajieshushijian" unicode="&#59002;" d="M508.760097 712.040201a353.05416 353.05416 0 1 1 0-706.108319 353.05416 353.05416 0 0 1 0 706.108319z m0-646.980086a293.973572 293.973572 0 1 0 0 587.947144 293.973572 293.973572 0 0 0 0-587.947144zM405.130839 485.056393h72.087847v-252.140703H405.130839zM250.425461-32.422855l-29.111484 32.494323 106.869161 95.815374 29.159129-32.494324zM189.62963 596.690117l-34.06663 38.116509 170.571376 152.656616 34.114275-38.116508zM695.006886 776.218872l-35.829518-39.260004 173.763633-152.418388 35.829518 39.260004zM669.659408 55.340406l29.063838 32.446678 106.964452-95.767728-29.111484-32.494323zM540.301508 485.056393h72.040201v-252.140703H540.301508z"  horiz-adv-x="1024" />

    
    <glyph glyph-name="dingwei" unicode="&#58884;" d="M537.6 768c96-6.4 185.6-44.8 249.6-108.8s102.4-153.6 108.8-249.6h89.6c12.8 0 25.6-12.8 25.6-25.6s-12.8-25.6-25.6-25.6H896c-6.4-96-44.8-185.6-108.8-249.6S640 6.4 537.6 0v-89.6c0-12.8-12.8-25.6-25.6-25.6s-25.6 12.8-25.6 25.6V0c-96 6.4-185.6 44.8-249.6 108.8S134.4 256 128 358.4H38.4C25.6 358.4 19.2 371.2 19.2 384s12.8 25.6 25.6 25.6H128c6.4 96 44.8 185.6 108.8 249.6S390.4 761.6 486.4 768V857.6c0 12.8 12.8 25.6 25.6 25.6s25.6-12.8 25.6-25.6V768zM512 422.4c19.2 0 38.4-19.2 38.4-38.4s-19.2-38.4-38.4-38.4-38.4 19.2-38.4 38.4 19.2 38.4 38.4 38.4z m0 147.2c51.2 0 96-19.2 128-51.2s51.2-76.8 51.2-128-19.2-96-51.2-128-76.8-51.2-128-51.2-96 19.2-128 51.2c-32 25.6-57.6 70.4-57.6 121.6 0 51.2 19.2 96 51.2 128 38.4 32 83.2 57.6 134.4 57.6z m96-89.6c-25.6 25.6-57.6 38.4-96 38.4s-70.4-12.8-96-38.4c-25.6-25.6-38.4-57.6-38.4-96s12.8-70.4 38.4-96c25.6-25.6 57.6-38.4 96-38.4s70.4 12.8 96 38.4c25.6 25.6 38.4 57.6 38.4 96s-12.8 70.4-38.4 96z m121.6 121.6c-57.6 51.2-134.4 89.6-217.6 89.6-83.2 0-160-32-217.6-89.6-51.2-57.6-89.6-134.4-89.6-217.6 0-83.2 32-160 89.6-217.6 57.6-57.6 128-89.6 217.6-89.6 83.2 0 160 32 217.6 89.6 57.6 57.6 89.6 134.4 89.6 217.6 0 83.2-38.4 160-89.6 217.6z"  horiz-adv-x="1024" />

    
    <glyph glyph-name="location" unicode="&#58897;" d="M512.103132 575.879021a106.221743 106.221743 0 1 0-75.507022-31.354611A106.221743 106.221743 0 0 0 512.103132 575.879021m0 63.989002a170.850635 170.850635 0 1 1 120.939214-49.911422A169.570855 169.570855 0 0 1 512.103132 639.868023zM805.172761 771.685367a407.609942 407.609942 0 0 1-586.139257 0 431.285873 431.285873 0 0 1 0-599.576948L512.103132-128l293.069629 300.108419a431.285873 431.285873 0 0 1 0 599.576948z m-44.152411-557.344207l-248.917218-255.956007-248.917217 255.956007a365.377201 365.377201 0 0 0 0 508.712565 346.82039 346.82039 0 0 0 497.834435 0 365.377201 365.377201 0 0 0 0-508.712565z"  horiz-adv-x="1024" />

    
    <glyph glyph-name="huidaodingbu" unicode="&#59112;" d="M513 830.2C266 830.2 65.7 630 65.7 383.1c0-247 200.3-447.2 447.3-447.2s447.3 200.2 447.3 447.2C960.4 630 760.2 830.2 513 830.2z m186.7-557.4c-5.3-4.9-12.1-7.5-19.2-7.5s-14 2.6-19.2 7.5L540.1 387.4v-234.6c0-13.8-12.1-25.1-27-25.1-14.8 0-27 11.3-27 25.1V387.5L364.7 272.8c-5.3-4.9-12.1-7.5-19.2-7.5-7.1-0.1-14 2.6-19.3 7.5-4.9 4.6-7.7 10.9-7.7 17.6 0 6.6 2.8 12.9 7.7 17.6l167.5 158.2c5.3 4.9 12.1 7.5 19.2 7.5 7.2 0 14-2.6 19.2-7.5l167.5-158.1c5-4.7 7.7-11 7.7-17.6s-2.5-12.9-7.6-17.7zM687 510.6H339.1c-16 0-29.1 12.2-29.1 27.2s13 27 29.1 27H687c16 0 29-12.2 29-27 0.1-15.1-13-27.2-29-27.2z m0 0"  horiz-adv-x="1024" />

    
    <glyph glyph-name="xinzeng1" unicode="&#58902;" d="M512 5.312000000000012a48 48 0 0 0-48 48V714.688a48 48 0 0 0 96 0v-661.376a48 48 0 0 0-48-48zM842.688 336H181.312a48 48 0 0 0 0 96h661.376a48 48 0 0 0 0-96z"  horiz-adv-x="1024" />

    
    <glyph glyph-name="ico_compile" unicode="&#58967;" d="M490.66666667 840.53333334v-68.26666667H149.33333334a68.26666667 68.26666667 0 0 1-68.26666667-68.26666667v-682.66666666a68.26666667 68.26666667 0 0 1 68.26666667-68.26666667h682.66666666a68.26666667 68.26666667 0 0 1 68.26666667 68.26666667V362.66666667000004h68.26666667v-341.33333333a136.53333333 136.53333333 0 0 0-136.53333334-136.53333334H149.33333334a136.53333333 136.53333333 0 0 0-136.53333334 136.53333334V704a136.53333333 136.53333333 0 0 0 136.53333334 136.53333334h341.33333333z m94.208-500.05333334a34.13333333 34.13333333 0 1 0-51.88266667 44.37333334l409.6 477.86666666a34.13333333 34.13333333 0 0 0 51.88266667-44.37333333l-409.6-477.86666667z"  horiz-adv-x="1024" />

    
    <glyph glyph-name="jihuakaishishijian" unicode="&#58928;" d="M512.19 712.469a353.054 353.054 0 1 1 0-706.108 353.054 353.054 0 0 1 0 706.108z m0-646.98a293.974 293.974 0 1 0 0 587.947 293.974 293.974 0 0 0 0-587.947zM253.808-31.946l-29.111 32.494 106.964 95.768 29.064-32.542z m-60.7 629.065l-34.115 38.116 170.572 152.657 34.114-38.116z m505.33 179.576l-35.878-39.307 173.764-152.371 35.877 39.26z m-25.443-720.878l29.063 32.542 106.965-95.768-29.064-32.542z m0.047 303.598l-247.9-135.076V494.538l247.9-135.123z"  horiz-adv-x="1024" />

    
    <glyph glyph-name="shezhi" unicode="&#58904;" d="M512 211.20000000000005h-19.2c-96 12.8-160 96-153.6 192 12.8 96 96 166.4 192 153.6 96-12.8 160-96 153.6-192-12.8-89.6-83.2-153.6-172.8-153.6z m0 307.2c-70.4 0-128-51.2-134.4-121.6-6.4-70.4 44.8-140.8 121.6-147.2 70.4-6.4 140.8 44.8 147.2 121.6 6.4 70.4-44.8 140.8-121.6 147.2H512z m153.6-153.6zM384-64c-12.8 0-25.6 6.4-38.4 12.8l-128 70.4c-25.6 12.8-44.8 44.8-38.4 83.2 19.2 108.8-25.6 128-64 140.8-38.4 6.4-64 38.4-64 76.8V454.4c0 32 25.6 64 57.6 76.8 64 19.2 83.2 64 70.4 134.4-6.4 32 6.4 64 38.4 83.2l128 76.8c32 19.2 64 12.8 89.6-6.4 38.4-38.4 102.4-64 153.6-6.4 25.6 25.6 64 32 96 19.2l121.6-70.4c25.6-25.6 44.8-57.6 38.4-89.6-12.8-70.4 12.8-108.8 83.2-134.4 32-12.8 51.2-38.4 51.2-70.4V320c0-32-25.6-64-57.6-76.8-64-19.2-89.6-64-70.4-134.4 6.4-32-6.4-64-38.4-83.2l-128-76.8c-25.6-19.2-64-12.8-89.6 6.4-51.2 44.8-102.4 44.8-153.6 0-19.2-12.8-38.4-19.2-57.6-19.2zM377.6 793.6c-6.4 0-12.8 0-19.2-6.4l-128-76.8c-12.8-6.4-19.2-25.6-19.2-38.4C230.4 576 198.4 512 115.2 492.8c-19.2-6.4-25.6-25.6-25.6-38.4V320c0-19.2 12.8-32 32-38.4 57.6-12.8 121.6-51.2 96-185.6 0-19.2 6.4-32 19.2-38.4l128-70.4c12.8-6.4 32-6.4 44.8 6.4 64 57.6 134.4 57.6 204.8 0 12.8-12.8 32-12.8 44.8-6.4l128 76.8c12.8 6.4 19.2 25.6 19.2 44.8-19.2 96 12.8 153.6 96 179.2 19.2 6.4 32 19.2 32 38.4V473.6c0 19.2-12.8 32-25.6 38.4-83.2 32-121.6 89.6-108.8 179.2 0 19.2-6.4 32-19.2 38.4l-121.6 70.4c-12.8 6.4-38.4 6.4-51.2-6.4-57.6-64-134.4-57.6-204.8 6.4-6.4-12.8-12.8-6.4-25.6-6.4z"  horiz-adv-x="1024" />

    
    <glyph glyph-name="tiaoshi" unicode="&#60257;" d="M544 507.488V800a32 32 0 0 1-64 0v-292.512c-55.104-14.272-96-63.904-96-123.488s40.896-109.216 96-123.488v-291.616c0-18.176 14.336-32.896 32-32.896s32 14.72 32 32.928v291.616c55.104 14.272 96 63.904 96 123.488s-40.896 109.184-96 123.456zM223.136 187.744C223.328 189.184 224 190.496 224 192V800a32 32 0 0 1-64 0v-608c0-1.504 0.672-2.816 0.864-4.256A127.744 127.744 0 0 1 64 64a128 128 0 0 1 256 0 127.744 127.744 0 0 1-96.864 123.744zM192 0a64 64 0 1 0 0.032 128.032A64 64 0 0 0 192 0zM960 704a128 128 0 0 1-256 0 127.744 127.744 0 0 1 96.864-123.744c-0.192-1.44-0.864-2.752-0.864-4.256v-608a32 32 0 0 1 64 0V576c0 1.504-0.672 2.816-0.864 4.256A127.744 127.744 0 0 1 960 704z m-128-64a64 64 0 1 0 0.032 128.032A64 64 0 0 0 832 640z"  horiz-adv-x="1024" />

    
    <glyph glyph-name="fenxiangfangshi" unicode="&#60258;" d="M800 192c-39.584 0-74.528-18.368-98.016-46.592l-273.472 154.72A191.04 191.04 0 0 1 448 384c0 28.928-6.592 56.256-18.048 80.864l204.64 131.84A127.04 127.04 0 0 1 704 576a128 128 0 1 1-128 128c0-21.504 5.792-41.44 15.168-59.232l-197.408-127.168A191.36 191.36 0 0 1 256 576a192 192 0 1 1 135.2-328.288l283.168-160.192A129.376 129.376 0 0 1 672 64a128 128 0 1 1 128 128zM704 768a64 64 0 1 0-0.032-128.032A64 64 0 0 0 704 768z m96-768a64 64 0 1 0 0.032 128.032A64 64 0 0 0 800 0z"  horiz-adv-x="1024" />

    
    <glyph glyph-name="guanfangbanben" unicode="&#60259;" d="M782.208 365.28L724.288 448l57.92 82.72a32 32 0 0 1-20.672 49.856l-99.456 17.536-17.536 99.456a32 32 0 0 1-49.856 20.672L512 660.288l-82.72 57.92a32 32 0 0 1-49.856-20.672l-17.536-99.456-99.456-17.504a32 32 0 0 1-20.672-49.856L299.712 448l-57.92-82.72a32 32 0 0 1 20.672-49.856l99.456-17.536 17.536-99.456a32 32 0 0 1 49.856-20.672L512 235.712l82.72-57.92a32 32 0 0 1 49.856 20.672l17.536 99.456 99.456 17.536a31.968 31.968 0 0 1 20.64 49.824z m-123.2 64.352l41.952-59.904-72.032-12.704a32 32 0 0 1-25.952-25.952l-12.704-72.032-59.904 41.952a32 32 0 0 1-36.704 0l-59.904-41.952-12.704 72.032a32 32 0 0 1-25.952 25.952l-72.032 12.704 41.952 59.904a32 32 0 0 1 0 36.704l-41.952 59.904 72.032 12.704a32 32 0 0 1 25.952 25.952l12.704 72.032 59.904-41.952a32 32 0 0 1 36.704 0l59.904 41.952 12.704-72.032a32 32 0 0 1 25.952-25.952l72.032-12.704-41.952-59.904a32 32 0 0 1 0-36.704zM512 861.088c-243.008 0-440-196.992-440-440a438.72 438.72 0 0 1 133.344-315.552 32 32 0 1 1 44.608 45.888 374.752 374.752 0 0 0-113.952 269.664c0 207.648 168.352 376 376 376s376-168.352 376-376c0-99.136-38.496-192.096-106.144-261.824a32 32 0 1 1 45.92-44.576 438.56 438.56 0 0 1 124.224 306.4c0 243.008-196.992 440-440 440zM704 134.912a32 32 0 0 1-32-32v-107.104l-142.24 94.848-0.064 0.032a32 32 0 0 1-11.552 4.736c-2.048 0.416-4.096 0.032-6.144 0.032s-4.096 0.352-6.144-0.032c-4.096-0.8-8-2.4-11.552-4.736l-0.064-0.032L352-4.224V96a32 32 0 0 1-64 0v-160c0-0.992 0.48-1.856 0.576-2.848a32.256 32.256 0 0 1 3.712-12.224c0.48-0.864 0.544-1.856 1.088-2.688 0.576-0.896 1.504-1.344 2.176-2.144a31.36 31.36 0 0 1 21.472-11.488c1.024-0.096 1.92-0.608 2.976-0.608 0.992 0 1.856 0.48 2.848 0.576a32.256 32.256 0 0 1 12.256 3.712c0.864 0.48 1.856 0.544 2.688 1.088L512 25.536l174.24-116.16c14.688-9.792 34.56-5.824 44.384 8.864a31.584 31.584 0 0 1 4.768 21.664c0.096 1.056 0.608 1.952 0.608 3.04v159.968a32 32 0 0 1-32 32z"  horiz-adv-x="1024" />

    
    <glyph glyph-name="tianshenpi" unicode="&#60263;" d="M575.232 0H160a32 32 0 0 0-32 32V736a32 32 0 0 0 32 32h544c17.664 0 32-14.336 32-32a32 32 0 0 1 64 0 96 96 0 0 1-96 96H160a96 96 0 0 1-96-96v-704a96 96 0 0 1 96-96h415.232a32 32 0 0 1 0 64zM512 608a32 32 0 0 1-32 32H224a32 32 0 0 1 0-64h256a32 32 0 0 1 32 32zM480 416a32 32 0 0 1-32 32H224a32 32 0 0 1 0-64h224a32 32 0 0 1 32 32zM224 224a32 32 0 0 1 0-64h128a32 32 0 0 1 0 64H224zM864 272h-66.176C822.08 339.712 864 464.352 864 480a160 160 0 0 1-320 0c0-20.064 39.84-139.744 65.696-208H544a96 96 0 0 1-96-96v-32a96 96 0 0 1 96-96h320a96 96 0 0 1 96 96v32a96 96 0 0 1-96 96z m-221.536 98.464C623.104 426.24 608 475.392 608 480a96 96 0 1 0 192 0c0-6.304-52.192-158.464-70.336-208h-51.2c-8 20.16-22.4 59.264-36 98.464zM896 144a32 32 0 0 0-32-32H544a32 32 0 0 0-32 32v32a32 32 0 0 0 32 32h320a32 32 0 0 0 32-32v-32z"  horiz-adv-x="1024" />

    
    <glyph glyph-name="shujukanban" unicode="&#60262;" d="M979.2 737.152a32 32 0 0 1-38.4 23.936l-166.848-38.656a32 32 0 0 1-15.808-53.408L794.56 631.36l-194.56-173.568-101.024 95.68a32 32 0 0 1-45.152-1.152l-216.736-227.264A64 64 0 1 1 288 262.4c0 6.944-1.376 13.472-3.424 19.712l193.536 202.944 99.232-93.952a32 32 0 0 1 43.296-0.64L839.04 585.28l41.504-42.976a32 32 0 0 1 53.92 13.92l44.448 165.408a31.84 31.84 0 0 1 0.288 15.52zM928 445.536a32 32 0 0 1-32-32V160a32 32 0 0 0-32-32H160a32 32 0 0 0-32 32V736a32 32 0 0 0 32 32h530.656a32 32 0 0 1 0 64H160a96 96 0 0 1-96-96v-576a96 96 0 0 1 96-96h704a96 96 0 0 1 96 96v253.536a32 32 0 0 1-32 32zM912 0h-800a32 32 0 0 1 0-64h800a32 32 0 0 1 0 64z"  horiz-adv-x="1024" />

    
    <glyph glyph-name="yibiaopan" unicode="&#60264;" d="M959.36 371.2c0.128 4.288 0.64 8.48 0.64 12.8 0 53.6-9.408 105.92-27.616 155.2a32 32 0 0 1-60.032-22.144c13.76-37.28 21.28-76.64 22.944-117.024H832a32 32 0 0 1 0-64h60.672c-22.336-178.944-167.552-319.424-348.672-334.4V64a32 32 0 0 1-64 0v-62.368C298.88 16.608 153.664 157.088 131.328 336H192a32 32 0 0 1 0 64H128.8C136.832 593.92 288.224 750.528 480 766.368V704a32 32 0 0 1 64 0V766.336c42.912-3.552 84.48-13.856 123.36-31.072a31.968 31.968 0 1 1 25.92 58.496A445.824 445.824 0 0 1 512 832C264.576 832 64 631.424 64 384c0-4.32 0.512-8.512 0.64-12.8-0.096-1.12-0.64-2.08-0.64-3.2 0-1.888 0.768-3.552 1.088-5.344C76.288 125.216 271.776-64 512-64s435.712 189.216 446.912 426.656c0.32 1.792 1.088 3.456 1.088 5.344 0 1.12-0.544 2.08-0.64 3.2zM851.392 733.408L475.936 572.48A191.936 191.936 0 0 1 512 192a191.936 191.936 0 0 1 179.296 123.744L892.16 688.832c0.288 0.544 0.256 1.152 0.512 1.696 0.96 2.016 1.408 4.16 1.92 6.336 0.448 1.92 0.992 3.776 1.088 5.728 0.096 1.952-0.288 3.808-0.576 5.76-0.32 2.24-0.576 4.384-1.344 6.496-0.192 0.576-0.128 1.184-0.352 1.76-0.544 1.312-1.6 2.176-2.304 3.36a29.664 29.664 0 0 1-3.744 5.408 28.864 28.864 0 0 1-5.056 4.192c-1.12 0.8-1.888 1.92-3.136 2.592-0.544 0.288-1.152 0.256-1.696 0.512-2.016 0.96-4.16 1.408-6.336 1.92-1.92 0.448-3.776 0.992-5.728 1.088-1.952 0.096-3.808-0.288-5.76-0.576-2.24-0.32-4.384-0.576-6.496-1.344-0.576-0.192-1.184-0.096-1.76-0.352z m-253.056-178.08l194.048 83.168-100.768-187.136a192.32 192.32 0 0 1-93.28 103.968z"  horiz-adv-x="1024" />

    
    <glyph glyph-name="small-chaxun" unicode="&#58891;" d="M464 704a270.95 270.95 0 1 0-105.86-21.35A270.24 270.24 0 0 0 464 704m0 64c-185.57 0-336-150.43-336-336s150.43-336 336-336 336 150.43 336 336-150.43 336-336 336zM710.63 230.63l-45.26-45.26L850.75 0 896 45.25 710.63 230.63z"  horiz-adv-x="1024" />

    
    <glyph glyph-name="xiugai" unicode="&#59032;" d="M929.661-127.995H94.341c-52.017 0-94.335 42.319-94.335 94.336V801.6610000000001C0.006 853.678 42.324 895.996 94.341 895.996h571.208c16.612 0 30.08-13.467 30.08-30.08s-13.468-30.08-30.08-30.08H94.341c-18.845 0-34.176-15.331-34.176-34.176v-835.32c0-18.846 15.331-34.177 34.176-34.177h835.32c18.844 0 34.174 15.331 34.174 34.177V537.55c0 16.612 13.468 30.079 30.079 30.079 16.612 0 30.08-13.467 30.08-30.079v-571.21c0-52.016-42.318-94.335-94.333-94.335zM284.24 117.22400000000005h-0.005c-14.549 0.001-23.424 5.823-28.307 10.707-13.691 13.691-10.758 33.036-9.794 39.393 1.282 8.454 3.95 18.668 8.157 31.226 8.936 26.674 22.501 57.011 32.307 77.763 23.017 48.711 58.276 113.975 81.899 137.598L813.308 858.719C836.467 881.88 867.26 894.635 900.014 894.635S963.56 881.88 986.72 858.72c23.161-23.16 35.916-53.954 35.916-86.707 0-32.754-12.755-63.547-35.916-86.708l-444.81-444.81c-26.885-26.886-101.873-64.564-124.215-75.472-36.568-17.851-102.53-47.799-133.455-47.799zM900.014 834.635c-16.727 0-32.452-6.514-44.279-18.342l-444.811-444.81c-10.819-10.819-36.18-51.244-63.717-107.575-16.611-33.979-27.579-60.426-34.125-78.828 18.402 6.545 44.847 17.513 78.829 34.125 56.33 27.537 96.754 52.897 107.574 63.717l444.81 444.81c11.828 11.828 18.342 27.554 18.342 44.281s-6.514 32.453-18.342 44.28-27.555 18.342-44.281 18.342zM834.61 837.606L965.596 706.62l-42.425-42.426L792.185 795.1800000000001zM429.346 432.33l130.987-130.986-42.426-42.426L386.92 389.905z"  horiz-adv-x="1024" />

    
    <glyph glyph-name="icon_fabu" unicode="&#60296;" d="M166.464 447.296l212.64-128.736a32 32 0 1 0-33.152-54.72l-266.528 161.312a32 32 0 0 0 4.256 56.928l832 347.456a32 32 0 0 0 43.744-35.52l-145.76-768a32 32 0 0 0-48.576-21.056l-270.208 171.328a32 32 0 0 0 34.24 54.08l230.464-146.112L885.44 747.52 166.464 447.296zM416 263.904V0a32 32 0 0 0-64 0v278.624a32 32 0 0 0 11.2 24.32L752.192 636a32 32 0 0 0 41.6-48.64L416 263.936z"  horiz-adv-x="1024" />

    
    <glyph glyph-name="tubiao-zhuzhuangtu" unicode="&#60310;" d="M896 0H96a32 32 0 0 0-32 32V672a32 32 0 0 0 64 0v-608h768a32 32 0 1 0 0-64zM512 143.84a32 32 0 0 0-32 32V545.376a32 32 0 0 0 64 0v-369.536a32 32 0 0 0-32-32zM320 143.424a32 32 0 0 0-32 32V384a32 32 0 0 0 64 0v-208.576a32 32 0 0 0-32-32zM896 143.328a32 32 0 0 0-32 32V732.512a32 32 0 1 0 64 0v-557.184a32 32 0 0 0-32-32zM704 143.264a32 32 0 0 0-32 32V672a32 32 0 1 0 64 0v-496.736a32 32 0 0 0-32-32z"  horiz-adv-x="1024" />

    
    <glyph glyph-name="zhiding" unicode="&#59956;" d="M821.30834435 693.30834435H202.69165565a44.18690634 44.18690634 0 0 0 0 88.37381268h618.6166887a44.18690634 44.18690634 0 0 0 0-88.37381268z m-44.18690632-706.99050138a44.14271943 44.14271943 0 0 0-31.37270351 12.81420283L512 232.88078031999999l-233.74873452-233.74873452A44.18690634 44.18690634 0 0 0 202.69165565 30.504749299999958V560.74762534a44.18690634 44.18690634 0 0 0 44.18690632 44.18690636h530.24287606a44.18690634 44.18690634 0 0 0 44.18690632-44.18690636v-530.24287604a44.18690634 44.18690634 0 0 0-44.18690632-44.18690633z m-265.12143803 353.49525069a44.14271943 44.14271943 0 0 0 31.3727035-12.81420283L732.9345317 137.43706263V516.5607190200001H291.0654683v-379.56552545l189.5618282 189.56182819A44.18690634 44.18690634 0 0 0 512 339.81309366000005z"  horiz-adv-x="1024" />

    
    <glyph glyph-name="xiangxia" unicode="&#58903;" d="M803.534 492.826c12.79 13.712 12.074 35.304-1.74 48.095-13.098 12.177-33.36 12.177-46.355 0L512.82 298.402 270.3 540.921c-12.79 13.712-34.28 14.53-48.094 1.74-13.712-12.792-14.53-34.28-1.74-48.095 0.512-0.614 1.126-1.126 1.74-1.74l266.565-266.668c13.303-13.302 34.792-13.302 48.095 0l266.668 266.668z"  horiz-adv-x="1024" />

    
    <glyph glyph-name="guolv" unicode="&#59977;" d="M548.40888889 431.33155555c0 7.28177778 3.64088889 18.20444445 10.92266666 25.48622223l163.84 182.04444444H300.82844445l163.84-185.68533333c7.28177778-7.28177778 10.92266667-14.56355555 10.92266666-25.48622222V165.54666667000004l72.81777778 54.61333333v211.17155555z m72.81777778-229.376c0-10.92266667-3.64088889-21.84533333-14.56355556-29.1271111l-145.63555556-109.22666667A36.40888889 36.40888889 0 0 0 402.77333333 92.72888889000001v324.03911111L195.24266667 649.78488889C173.39733333 675.27111111 187.96088889 711.6800000000001 220.72888889 711.6800000000001h582.54222222c32.768 0 47.33155555-36.40888889 25.48622222-61.89511111L621.22666667 416.768V201.95555554999999z"  horiz-adv-x="1024" />

    
    </font>
</defs>
</svg>
